<svg class="animated" id="freepik_stories-education" xmlns="http://www.w3.org/2000/svg" viewBox="0 0 500 500" version="1.1" xmlns:xlink="http://www.w3.org/1999/xlink" xmlns:svgjs="http://svgjs.com/svgjs"><style>svg#freepik_stories-education:not(.animated) .animable {opacity: 0;}svg#freepik_stories-education.animated #freepik--Shadow--inject-175 {animation: 1.5s Infinite  linear heartbeat;animation-delay: 0s;}svg#freepik_stories-education.animated #freepik--Globe--inject-175 {animation: 1.5s Infinite  linear floating;animation-delay: 0s;}            @keyframes heartbeat {                0% {                    transform: scale(1);                }                10% {                    transform: scale(1.1);                }                30% {                    transform: scale(1);                }                40% {                    transform: scale(1);                }                50% {                    transform: scale(1.1);                }                60% {                    transform: scale(1);                }                100% {                    transform: scale(1);                }            }                    @keyframes floating {                0% {                    opacity: 1;                    transform: translateY(0px);                }                50% {                    transform: translateY(-10px);                }                100% {                    opacity: 1;                    transform: translateY(0px);                }            }        </style><g id="freepik--background-complete--inject-175" class="animable" style="transform-origin: 250px 228.23px;"><rect y="382.4" width="500" height="0.25" style="fill: rgb(235, 235, 235); transform-origin: 250px 382.525px;" id="eltto9q5lqjh" class="animable"></rect><rect x="416.78" y="398.49" width="33.12" height="0.25" style="fill: rgb(235, 235, 235); transform-origin: 433.34px 398.615px;" id="el6lfdp8029hi" class="animable"></rect><rect x="322.53" y="401.21" width="8.69" height="0.25" style="fill: rgb(235, 235, 235); transform-origin: 326.875px 401.335px;" id="elxofn9lyr38b" class="animable"></rect><rect x="396.59" y="389.21" width="19.19" height="0.25" style="fill: rgb(235, 235, 235); transform-origin: 406.185px 389.335px;" id="elga56blozz3" class="animable"></rect><rect x="52.46" y="390.89" width="43.19" height="0.25" style="fill: rgb(235, 235, 235); transform-origin: 74.055px 391.015px;" id="el4e84l3p2mak" class="animable"></rect><rect x="104.56" y="390.89" width="6.33" height="0.25" style="fill: rgb(235, 235, 235); transform-origin: 107.725px 391.015px;" id="elt0rvax3qjnn" class="animable"></rect><rect x="131.47" y="395.11" width="93.68" height="0.25" style="fill: rgb(235, 235, 235); transform-origin: 178.31px 395.235px;" id="elmiavxhw25fc" class="animable"></rect><path d="M237,337.8H43.91a5.71,5.71,0,0,1-5.7-5.71V60.66A5.71,5.71,0,0,1,43.91,55H237a5.71,5.71,0,0,1,5.71,5.71V332.09A5.71,5.71,0,0,1,237,337.8ZM43.91,55.2a5.46,5.46,0,0,0-5.45,5.46V332.09a5.46,5.46,0,0,0,5.45,5.46H237a5.47,5.47,0,0,0,5.46-5.46V60.66A5.47,5.47,0,0,0,237,55.2Z" style="fill: rgb(235, 235, 235); transform-origin: 140.46px 196.4px;" id="el5w74mqqmv9q" class="animable"></path><path d="M453.31,337.8H260.21a5.72,5.72,0,0,1-5.71-5.71V60.66A5.72,5.72,0,0,1,260.21,55h193.1A5.71,5.71,0,0,1,459,60.66V332.09A5.71,5.71,0,0,1,453.31,337.8ZM260.21,55.2a5.47,5.47,0,0,0-5.46,5.46V332.09a5.47,5.47,0,0,0,5.46,5.46h193.1a5.47,5.47,0,0,0,5.46-5.46V60.66a5.47,5.47,0,0,0-5.46-5.46Z" style="fill: rgb(235, 235, 235); transform-origin: 356.75px 196.4px;" id="elvsl4rcipb" class="animable"></path><rect x="72.62" y="128.51" width="354.75" height="253.89" style="fill: rgb(224, 224, 224); transform-origin: 249.995px 255.455px;" id="el62jj0wvopi" class="animable"></rect><path d="M250,381.26V122.53s45.21-15.84,166.08-15.84V381.26Z" style="fill: rgb(245, 245, 245); transform-origin: 333.04px 243.975px;" id="elwznaufuql7" class="animable"></path><path d="M250,381.26V122.53s-45.21-15.84-166.08-15.84V381.26Z" style="fill: rgb(240, 240, 240); transform-origin: 166.96px 243.975px;" id="elail0p1pkxuf" class="animable"></path><path d="M262.93,149.24a2.38,2.38,0,0,1-2.29-2.13,2.48,2.48,0,0,1,1.94-2.86A944.42,944.42,0,0,1,399.31,134a2.51,2.51,0,0,1,0,5,937.69,937.69,0,0,0-136,10.22A2.07,2.07,0,0,1,262.93,149.24Z" style="fill: rgb(240, 240, 240); transform-origin: 331.099px 141.621px;" id="elpgezkgpdnx9" class="animable"></path><path d="M262.93,167.82a2.39,2.39,0,0,1-2.3-2.19,2.47,2.47,0,0,1,2-2.8c.69-.1,69.54-9.34,136.67-9.34a2.52,2.52,0,0,1,0,5c-66.83,0-135.4,9.2-136.09,9.29A1.42,1.42,0,0,1,262.93,167.82Z" style="fill: rgb(240, 240, 240); transform-origin: 331.053px 160.655px;" id="elxafn012atkh" class="animable"></path><path d="M262.93,186.41a2.39,2.39,0,0,1-2.31-2.25,2.47,2.47,0,0,1,2.07-2.75c.76-.09,76.22-8.4,136.62-8.4a2.52,2.52,0,0,1,0,5c-60.17,0-135.39,8.28-136.14,8.37Z" style="fill: rgb(240, 240, 240); transform-origin: 331.057px 179.71px;" id="elz2bpwi0mj4j" class="animable"></path><path d="M262.93,205a2.4,2.4,0,0,1-2.31-2.3,2.46,2.46,0,0,1,2.12-2.71c.82-.07,82.89-7.46,136.57-7.46a2.52,2.52,0,0,1,0,5c-53.49,0-135.36,7.36-136.18,7.44Z" style="fill: rgb(240, 240, 240); transform-origin: 331.059px 198.765px;" id="el2e1bysw7ile" class="animable"></path><path d="M262.93,223.58a2.4,2.4,0,0,1-2.31-2.33,2.43,2.43,0,0,1,2.15-2.67c.89-.07,89.57-6.53,136.54-6.53a2.51,2.51,0,0,1,0,5c-46.81,0-135.33,6.45-136.22,6.52Z" style="fill: rgb(240, 240, 240); transform-origin: 331.101px 217.815px;" id="elrskwm0o9rj" class="animable"></path><path d="M262.93,242.17a2.41,2.41,0,0,1-2.32-2.37,2.45,2.45,0,0,1,2.2-2.64c.95-.06,96.25-5.59,136.5-5.59a2.51,2.51,0,0,1,0,5c-40.13,0-135.3,5.53-136.25,5.59Z" style="fill: rgb(240, 240, 240); transform-origin: 331.099px 236.87px;" id="el3b8f8mxgn5" class="animable"></path><path d="M262.93,260.76a2.52,2.52,0,0,1-.1-5c1-.05,102.94-4.66,136.48-4.66a2.51,2.51,0,0,1,0,5c-33.44,0-135.26,4.61-136.28,4.66Z" style="fill: rgb(240, 240, 240); transform-origin: 331.134px 255.93px;" id="elwh53lx3g41g" class="animable"></path><path d="M262.93,279.35a2.52,2.52,0,0,1-.07-5c1.09,0,109.62-3.72,136.45-3.72a2.51,2.51,0,0,1,0,5c-26.76,0-135.21,3.69-136.3,3.73Z" style="fill: rgb(240, 240, 240); transform-origin: 331.143px 274.995px;" id="eldl04ay1b297" class="animable"></path><path d="M262.93,297.93a2.51,2.51,0,0,1-.05-5c1.16,0,116.31-2.8,136.43-2.8a2.52,2.52,0,0,1,0,5c-20.07,0-135.17,2.77-136.33,2.79Z" style="fill: rgb(240, 240, 240); transform-origin: 331.065px 294.03px;" id="el2qieb9gnqjd" class="animable"></path><path d="M262.93,316.52a2.51,2.51,0,0,1,0-5c1.23,0,123-1.87,136.41-1.87a2.52,2.52,0,0,1,0,5c-13.38,0-135.12,1.84-136.35,1.86Z" style="fill: rgb(240, 240, 240); transform-origin: 331.093px 313.085px;" id="elg5o5ugir0nv" class="animable"></path><path d="M262.93,335.11a2.52,2.52,0,0,1,0-5c1.29,0,129.68-.93,136.39-.93a2.52,2.52,0,0,1,0,5c-6.69,0-135.07.92-136.36.93Z" style="fill: rgb(240, 240, 240); transform-origin: 331.125px 332.145px;" id="el46qwukhhkjc" class="animable"></path><path d="M399.31,353.7H262.93a2.52,2.52,0,0,1,0-5H399.31a2.52,2.52,0,0,1,0,5Z" style="fill: rgb(240, 240, 240); transform-origin: 331.12px 351.2px;" id="el41vtlvsvqu4" class="animable"></path><path d="M237.07,149.24a2.38,2.38,0,0,0,2.29-2.13,2.48,2.48,0,0,0-1.94-2.86A944.42,944.42,0,0,0,100.69,134a2.51,2.51,0,0,0,0,5,937.69,937.69,0,0,1,136,10.22A2.07,2.07,0,0,0,237.07,149.24Z" style="fill: rgb(235, 235, 235); transform-origin: 168.901px 141.621px;" id="elnois2ior4r" class="animable"></path><path d="M237.07,167.82a2.39,2.39,0,0,0,2.3-2.19,2.47,2.47,0,0,0-2-2.8c-.69-.1-69.54-9.34-136.67-9.34a2.52,2.52,0,0,0,0,5c66.83,0,135.4,9.2,136.09,9.29A1.42,1.42,0,0,0,237.07,167.82Z" style="fill: rgb(235, 235, 235); transform-origin: 168.947px 160.655px;" id="eljhyipzf8hn9" class="animable"></path><path d="M237.07,186.41a2.39,2.39,0,0,0,2.31-2.25,2.47,2.47,0,0,0-2.07-2.75c-.76-.09-76.22-8.4-136.62-8.4a2.52,2.52,0,0,0,0,5c60.17,0,135.39,8.28,136.14,8.37Z" style="fill: rgb(235, 235, 235); transform-origin: 168.943px 179.71px;" id="eldzc5sll8daf" class="animable"></path><path d="M237.07,205a2.4,2.4,0,0,0,2.31-2.3,2.46,2.46,0,0,0-2.12-2.71c-.82-.07-82.89-7.46-136.57-7.46a2.52,2.52,0,0,0,0,5c53.49,0,135.36,7.36,136.18,7.44Z" style="fill: rgb(235, 235, 235); transform-origin: 168.941px 198.765px;" id="elloel8bhbkk" class="animable"></path><path d="M237.07,223.58a2.4,2.4,0,0,0,2.31-2.33,2.43,2.43,0,0,0-2.15-2.67c-.89-.07-89.57-6.53-136.54-6.53a2.51,2.51,0,0,0,0,5c46.81,0,135.33,6.45,136.22,6.52Z" style="fill: rgb(235, 235, 235); transform-origin: 168.899px 217.815px;" id="el07qqpn4qne4d" class="animable"></path><path d="M237.07,242.17a2.41,2.41,0,0,0,2.32-2.37,2.45,2.45,0,0,0-2.2-2.64c-.95-.06-96.25-5.59-136.5-5.59a2.51,2.51,0,0,0,0,5c40.13,0,135.3,5.53,136.25,5.59Z" style="fill: rgb(235, 235, 235); transform-origin: 168.901px 236.87px;" id="elbgkru0xtpvt" class="animable"></path><path d="M237.07,260.76a2.52,2.52,0,0,0,.1-5c-1-.05-102.94-4.66-136.48-4.66a2.51,2.51,0,0,0,0,5c33.44,0,135.26,4.61,136.28,4.66Z" style="fill: rgb(235, 235, 235); transform-origin: 168.866px 255.93px;" id="eljeq9q2iqsy" class="animable"></path><path d="M237.07,279.35a2.52,2.52,0,0,0,.07-5c-1.09,0-109.62-3.72-136.45-3.72a2.51,2.51,0,0,0,0,5c26.76,0,135.21,3.69,136.3,3.73Z" style="fill: rgb(235, 235, 235); transform-origin: 168.857px 274.995px;" id="el739nbbohxoi" class="animable"></path><path d="M237.07,297.93a2.51,2.51,0,0,0,.05-5c-1.16,0-116.31-2.8-136.43-2.8a2.52,2.52,0,0,0,0,5c20.07,0,135.17,2.77,136.33,2.79Z" style="fill: rgb(235, 235, 235); transform-origin: 168.935px 294.03px;" id="eld5ig4jizul8" class="animable"></path><path d="M237.07,316.52a2.51,2.51,0,0,0,0-5c-1.23,0-123-1.87-136.41-1.87a2.52,2.52,0,0,0,0,5c13.38,0,135.12,1.84,136.35,1.86Z" style="fill: rgb(235, 235, 235); transform-origin: 168.907px 313.085px;" id="elk2kol0kkjhj" class="animable"></path><path d="M237.07,335.11a2.52,2.52,0,0,0,0-5c-1.29,0-129.68-.93-136.39-.93a2.52,2.52,0,0,0,0,5c6.69,0,135.07.92,136.36.93Z" style="fill: rgb(235, 235, 235); transform-origin: 168.875px 332.145px;" id="elivfy0zk3o8k" class="animable"></path><path d="M100.69,353.7H237.07a2.52,2.52,0,0,0,0-5H100.69a2.52,2.52,0,0,0,0,5Z" style="fill: rgb(235, 235, 235); transform-origin: 168.88px 351.2px;" id="elvi3sxp7a6da" class="animable"></path><polygon points="264.96 211.42 257.32 203.4 249.69 211.42 249.69 120 264.96 116.99 264.96 211.42" style="fill: rgb(224, 224, 224); transform-origin: 257.325px 164.205px;" id="eli3klsvbp2ee" class="animable"></polygon><path d="M287.18,251.92c-.53,0-.75-.61-1.07-1.87a.51.51,0,0,1,.37-.61.48.48,0,0,1,.6.36v0c.09-.66.17-1.52.26-2.4a118.62,118.62,0,0,1,2.1-14.18c1.1-5,2.71-7.87,4.77-8.44a3.55,3.55,0,0,1,3.27,1,.51.51,0,0,1,0,.71.5.5,0,0,1-.71,0,2.52,2.52,0,0,0-2.28-.76c-1.14.32-2.78,1.91-4.05,7.69a117.21,117.21,0,0,0-2.07,14.05c-.37,3.67-.44,4.33-1.12,4.38Z" style="fill: rgb(224, 224, 224); transform-origin: 291.86px 238.313px;" id="el6vlwzzgcrqu" class="animable"></path><path d="M285.77,238.11a.5.5,0,0,1-.19-1l8.3-3.41a.5.5,0,1,1,.38.93l-8.3,3.4A.43.43,0,0,1,285.77,238.11Z" style="fill: rgb(224, 224, 224); transform-origin: 289.87px 235.891px;" id="elqe9tg73t5kp" class="animable"></path><path d="M303.46,245.25a.45.45,0,0,1-.25-.07c-7.8-4.54-2.77-15.17-2.72-15.28a.5.5,0,0,1,.9.44c-.19.4-4.67,9.9,2.32,14a.5.5,0,0,1-.25.93Z" style="fill: rgb(224, 224, 224); transform-origin: 301.402px 237.445px;" id="elxi8ho1yq5c" class="animable"></path><path d="M311,242.14a.5.5,0,0,1-.44-.73c4.84-9.29-2.54-13.56-2.86-13.74a.49.49,0,0,1-.19-.68.48.48,0,0,1,.67-.19c.09,0,8.56,4.9,3.27,15.07A.51.51,0,0,1,311,242.14Z" style="fill: rgb(224, 224, 224); transform-origin: 310.315px 234.436px;" id="elti8h03m9la" class="animable"></path><path d="M308.24,238.39a.54.54,0,0,1-.3-.1L302.07,234a.51.51,0,0,1-.11-.7.5.5,0,0,1,.7-.1l5.87,4.28a.5.5,0,0,1,.11.7A.52.52,0,0,1,308.24,238.39Z" style="fill: rgb(224, 224, 224); transform-origin: 305.302px 235.745px;" id="elug9htj8w6gm" class="animable"></path><path d="M302.38,239.52a.52.52,0,0,1-.27-.07.51.51,0,0,1-.16-.69l4.6-7.31a.49.49,0,0,1,.69-.16.5.5,0,0,1,.15.69l-4.59,7.31A.49.49,0,0,1,302.38,239.52Z" style="fill: rgb(224, 224, 224); transform-origin: 304.673px 235.365px;" id="elt275ex3ym8a" class="animable"></path><path d="M98.14,324.27h0a.5.5,0,0,1-.5-.5,11.11,11.11,0,0,1,3.2-8.24c4.2-4.14,11-4.08,11.26-4.08a.5.5,0,0,1,.49.5.47.47,0,0,1-.51.5s-6.64,0-10.54,3.8a10.13,10.13,0,0,0-2.9,7.52A.5.5,0,0,1,98.14,324.27Z" style="fill: rgb(224, 224, 224); transform-origin: 105.111px 317.86px;" id="elv1xgv92dpkp" class="animable"></path><path d="M109.38,325.71a.49.49,0,0,1-.32-.12,1.26,1.26,0,0,1-.44-1,5.09,5.09,0,0,1,1.17-2.63c-2.07,1-4.53,1.55-5.88.77-.6-.35-1.24-1.1-.86-2.74a3.76,3.76,0,0,1,4-3.12c2.06.07,4.13,1.27,4.33,2.53a.5.5,0,0,1-.41.57.49.49,0,0,1-.57-.41c-.11-.63-1.66-1.63-3.38-1.69a2.77,2.77,0,0,0-3,2.34c-.29,1.27.22,1.56.39,1.66,1.51.87,6-.94,7.6-2.45a.5.5,0,1,1,.68.72c-1.2,1.18-3.1,3.41-3.07,4.42a.26.26,0,0,0,.09.23.51.51,0,0,1,.05.71A.52.52,0,0,1,109.38,325.71Z" style="fill: rgb(224, 224, 224); transform-origin: 107.918px 321.284px;" id="elmx79rcq31n" class="animable"></path><path d="M109.09,328.54a2.71,2.71,0,0,1-1.34-.35.5.5,0,1,1,.48-.88c1.59.87,3.12-1,3.18-1.08a.5.5,0,0,1,.79.62A4.39,4.39,0,0,1,109.09,328.54Z" style="fill: rgb(224, 224, 224); transform-origin: 109.898px 327.29px;" id="eluccvntj820c" class="animable"></path><path d="M119.73,331.15a4.91,4.91,0,0,1-3.44-1.59.51.51,0,0,1,0-.71.5.5,0,0,1,.71,0,3.44,3.44,0,0,0,3.79,1.1,2.81,2.81,0,0,0,1.9-2.25,1.83,1.83,0,0,0-1.1-1.76c-2.26-1.24-6.33,2.14-7.7,3.55a.5.5,0,0,1-.86-.35.54.54,0,0,1,.14-.35l10.45-10.66a.49.49,0,0,1,.7,0,.5.5,0,0,1,0,.71L118,325.29a4.56,4.56,0,0,1,4.07-.22,2.82,2.82,0,0,1,1.62,2.7,3.85,3.85,0,0,1-2.56,3.12A4,4,0,0,1,119.73,331.15Z" style="fill: rgb(224, 224, 224); transform-origin: 118.749px 324.566px;" id="el3c0ep9dmanc" class="animable"></path><path d="M117.73,335a.5.5,0,0,1-.5-.48.51.51,0,0,1,.48-.52c4.3-.13,7.42-1.41,9.28-3.79,2.84-3.64,1.79-8.7,1.78-8.75a.5.5,0,0,1,1-.21c0,.22,1.17,5.56-2,9.57-2,2.63-5.43,4-10,4.18Z" style="fill: rgb(224, 224, 224); transform-origin: 123.605px 327.923px;" id="eloyaoyd4bbx" class="animable"></path><path d="M346.91,156.33l-.12,0a.49.49,0,0,1-.38-.48l-.07-11-4.62-.76a.5.5,0,0,1,.16-1l5,.83a.51.51,0,0,1,.42.49l.06,9.53,10.11-18.45a.5.5,0,0,1,.52-.25l17.41,2.86a.5.5,0,0,1,.41.58.49.49,0,0,1-.57.41l-17.07-2.81-10.86,19.83A.51.51,0,0,1,346.91,156.33Z" style="fill: rgb(224, 224, 224); transform-origin: 358.556px 145.782px;" id="eld81f18wnijs" class="animable"></path><path d="M367.52,158.53a.52.52,0,0,1-.44-.25l-7.66-13.52a.52.52,0,0,1,.19-.69.5.5,0,0,1,.68.19L368,157.79a.49.49,0,0,1-.18.68A.57.57,0,0,1,367.52,158.53Z" style="fill: rgb(224, 224, 224); transform-origin: 363.714px 151.269px;" id="elnyfdhknjdo" class="animable"></path><path d="M355.77,156.6a.49.49,0,0,1-.4-.21.5.5,0,0,1,.11-.69l13.71-10a.5.5,0,0,1,.59.81l-13.71,10A.47.47,0,0,1,355.77,156.6Z" style="fill: rgb(224, 224, 224); transform-origin: 362.632px 151.102px;" id="el1r880lkuc9m" class="animable"></path><path d="M299.94,141.89h-.05c-.78,0-1.82-.42-2.34-2.26a4.3,4.3,0,0,1,2.34-5.36c2.08-1.06,4.87-1,5.74.12a.49.49,0,0,1-.08.7.5.5,0,0,1-.7-.08c-.48-.61-2.68-.78-4.5.15a3.31,3.31,0,0,0-1.84,4.2c.43,1.51,1.16,1.52,1.4,1.53,2.07.07,5.62-4.28,6.47-6.82a.49.49,0,0,1,.62-.32.5.5,0,0,1,.33.62c-.58,1.89-1.26,5.26-.65,6.3a.42.42,0,0,0,.28.23.49.49,0,0,1,.38.59.5.5,0,0,1-.59.39,1.4,1.4,0,0,1-.93-.7,6.29,6.29,0,0,1-.24-3.6C304,139.77,301.8,141.89,299.94,141.89Z" style="fill: rgb(224, 224, 224); transform-origin: 302.331px 137.701px;" id="elpb8f6ywodn" class="animable"></path><path d="M309.27,135.73a.3.3,0,0,1-.13,0,.5.5,0,0,1-.35-.61h0l1.66-5.93a.51.51,0,0,1,.62-.35.5.5,0,0,1,.34.62l-.72,2.58a1.73,1.73,0,0,1,.87-.25,1.45,1.45,0,0,1,1.39.83,1.89,1.89,0,0,1-.35,1.95,2.15,2.15,0,0,1-2.33.57.49.49,0,0,1-.33-.31c-.08.21-.14.4-.19.57h0A.49.49,0,0,1,309.27,135.73Zm1.14-1.6.15,0a1.17,1.17,0,0,0,1.28-.26.91.91,0,0,0,.2-.88c0-.06-.12-.25-.48-.25s-1,.69-1.35,1.42A.49.49,0,0,1,310.41,134.13Z" style="fill: rgb(224, 224, 224); transform-origin: 310.927px 132.28px;" id="el0gpkkn74m83g" class="animable"></path><path d="M222.54,350.12h-.11a1.38,1.38,0,0,1-.93-.7,6.26,6.26,0,0,1-.23-3.59c-1.57,2.21-3.79,4.38-5.69,4.3-.78,0-1.82-.42-2.34-2.25a4.3,4.3,0,0,1,2.34-5.36c2.07-1.06,4.86-1,5.74.12a.5.5,0,1,1-.78.61c-.48-.6-2.68-.77-4.5.16a3.31,3.31,0,0,0-1.84,4.19c.43,1.51,1.16,1.53,1.4,1.53h0c2.11,0,5.59-4.29,6.43-6.82a.5.5,0,0,1,1,.31c-.58,1.88-1.26,5.26-.65,6.3a.4.4,0,0,0,.28.23.5.5,0,0,1-.11,1Z" style="fill: rgb(224, 224, 224); transform-origin: 218.052px 345.957px;" id="elv11aacafi" class="animable"></path><path d="M225,344l-.13,0a.49.49,0,0,1-.35-.62l1.66-5.94a.5.5,0,0,1,.62-.34.49.49,0,0,1,.34.61l-.72,2.59a1.63,1.63,0,0,1,.86-.25,1.44,1.44,0,0,1,1.39.83,1.87,1.87,0,0,1-.34,1.95,2.15,2.15,0,0,1-2.33.57.51.51,0,0,1-.33-.31c-.08.21-.14.4-.19.56h0A.5.5,0,0,1,225,344Zm1.14-1.6.14,0a1.18,1.18,0,0,0,1.29-.26.89.89,0,0,0,.19-.89c0-.06-.11-.24-.48-.24s-1,.69-1.34,1.41A.65.65,0,0,1,226.1,342.37Z" style="fill: rgb(224, 224, 224); transform-origin: 226.653px 340.54px;" id="elnzxbikxps7" class="animable"></path><path d="M100.25,244.59a.49.49,0,0,1-.37-.16l-7.66-8.37a.51.51,0,0,1-.11-.47l3.5-12.65a.5.5,0,1,1,1,.27l-3.43,12.38,7.47,8.17a.5.5,0,0,1-.37.83Z" style="fill: rgb(224, 224, 224); transform-origin: 96.4334px 233.574px;" id="el7howo2spp0g" class="animable"></path><path d="M109.24,236a.49.49,0,0,1-.32-.12l-8.77-7.32a.51.51,0,0,1-.06-.71.49.49,0,0,1,.7-.06l8.77,7.33a.49.49,0,0,1,.06.7A.48.48,0,0,1,109.24,236Z" style="fill: rgb(224, 224, 224); transform-origin: 104.857px 231.835px;" id="elsiiu5xi8j8m" class="animable"></path><path d="M102.72,236.21a.58.58,0,0,1-.19,0,.5.5,0,0,1-.28-.65l3.8-9.31a.5.5,0,0,1,.65-.28.51.51,0,0,1,.27.66l-3.79,9.3A.49.49,0,0,1,102.72,236.21Z" style="fill: rgb(224, 224, 224); transform-origin: 104.611px 231.076px;" id="elk4gyv9c11sl" class="animable"></path><path d="M111.6,238a.5.5,0,0,1-.14-1c.5-.15.73-1.54.71-2.49a.5.5,0,0,1,.48-.51.53.53,0,0,1,.52.48c0,.51,0,3.05-1.42,3.48Z" style="fill: rgb(224, 224, 224); transform-origin: 112.098px 236.002px;" id="el0dcnrszvo166" class="animable"></path><path d="M119.06,229.73a.46.46,0,0,1-.29-.1l-5.29-3.93a.51.51,0,0,1-.1-.7.5.5,0,0,1,.7-.1l5.28,3.93a.51.51,0,0,1,.11.7A.51.51,0,0,1,119.06,229.73Z" style="fill: rgb(224, 224, 224); transform-origin: 116.423px 227.265px;" id="elkkhqtokpa0m" class="animable"></path><path d="M115.81,241.36a.34.34,0,0,1-.14,0,.49.49,0,0,1-.34-.61l5.22-18.8a.5.5,0,1,1,1,.27L116.29,241A.49.49,0,0,1,115.81,241.36Z" style="fill: rgb(224, 224, 224); transform-origin: 118.439px 231.467px;" id="elpdcg3b7gga" class="animable"></path><path d="M126.15,236.14a.45.45,0,0,1-.16,0,.5.5,0,0,1-.31-.64l3.52-10.22-8.29-9.38a.51.51,0,0,1,0-.71.51.51,0,0,1,.71.05l8.48,9.6a.49.49,0,0,1,.1.49l-3.62,10.5A.49.49,0,0,1,126.15,236.14Z" style="fill: rgb(224, 224, 224); transform-origin: 125.497px 225.608px;" id="eliw2n7hnb4ri" class="animable"></path><path d="M358.8,257.08a.47.47,0,0,1-.3-.1.49.49,0,0,1-.18-.56l12.27-36.52a.49.49,0,0,1,.84-.17l14.88,16.6a.52.52,0,0,1,.13.39.52.52,0,0,1-.2.35L359.09,257A.46.46,0,0,1,358.8,257.08Zm12.46-36-11.49,34.21,25.43-18.65Z" style="fill: rgb(224, 224, 224); transform-origin: 372.368px 238.319px;" id="elih6xgw808lk" class="animable"></path><path d="M382.3,239.84a.52.52,0,0,1-.38-.17l-3.14-3.59a.5.5,0,0,1-.12-.37.51.51,0,0,1,.17-.34l3.34-2.9a.51.51,0,0,1,.71.05.49.49,0,0,1-.05.7l-3,2.58,2.81,3.21a.5.5,0,0,1,0,.71A.52.52,0,0,1,382.3,239.84Z" style="fill: rgb(224, 224, 224); transform-origin: 380.831px 236.095px;" id="eljd6kefu94af" class="animable"></path><path d="M165.56,166.71a13,13,0,1,1,13-13A13,13,0,0,1,165.56,166.71Zm0-25a12,12,0,1,0,12,12A12,12,0,0,0,165.56,141.72Z" style="fill: rgb(224, 224, 224); transform-origin: 165.56px 153.71px;" id="el7bjfvfh08we" class="animable"></path><path d="M179.43,157.15a14.37,14.37,0,1,1,14.36-14.37A14.39,14.39,0,0,1,179.43,157.15Zm0-27.73a13.37,13.37,0,1,0,13.36,13.36A13.38,13.38,0,0,0,179.43,129.42Z" style="fill: rgb(224, 224, 224); transform-origin: 179.42px 142.78px;" id="el22nc973acd8" class="animable"></path><path d="M166.33,147.84a.36.36,0,0,1-.14,0,.5.5,0,0,1-.34-.61l1.69-5.88a.49.49,0,0,1,.62-.34.48.48,0,0,1,.34.61l-1.69,5.88A.49.49,0,0,1,166.33,147.84Z" style="fill: rgb(224, 224, 224); transform-origin: 167.177px 144.417px;" id="el5ipv3g4gfpn" class="animable"></path><path d="M168,151.16a.3.3,0,0,1-.13,0,.5.5,0,0,1-.35-.61l2.4-8.46a.49.49,0,0,1,.61-.35.51.51,0,0,1,.35.62l-2.4,8.46A.49.49,0,0,1,168,151.16Z" style="fill: rgb(224, 224, 224); transform-origin: 169.2px 146.444px;" id="elof48xnyaii" class="animable"></path><path d="M170.42,153.69l-.13,0a.5.5,0,0,1-.36-.61l2.5-9.57a.5.5,0,0,1,.61-.35.5.5,0,0,1,.36.61l-2.5,9.56A.5.5,0,0,1,170.42,153.69Z" style="fill: rgb(224, 224, 224); transform-origin: 171.665px 148.417px;" id="elvb51u742ayp" class="animable"></path><path d="M173.93,156h-.1a.51.51,0,0,1-.4-.59l1.79-9.07a.5.5,0,1,1,1,.19l-1.78,9.08A.51.51,0,0,1,173.93,156Z" style="fill: rgb(224, 224, 224); transform-origin: 174.826px 150.963px;" id="elfyigdsusak" class="animable"></path><path d="M175.71,156.64l-.11,0a.5.5,0,0,1-.38-.6l1.58-6.74a.5.5,0,0,1,.6-.38.49.49,0,0,1,.37.6l-1.57,6.75A.51.51,0,0,1,175.71,156.64Z" style="fill: rgb(224, 224, 224); transform-origin: 176.496px 152.774px;" id="elwj39h167cd" class="animable"></path><path d="M152.81,143.05a2,2,0,0,1-1.26-.54,2.57,2.57,0,0,1-.67-3.43c.59-1.1,1.94-2.11,2.87-1.85a.29.29,0,0,1,0-.09.5.5,0,1,1,1-.29c.51,1.6,1.27,2.88,1.58,2.92a.5.5,0,0,1,.65.27.52.52,0,0,1-.28.66,1,1,0,0,1-.82,0,2.47,2.47,0,0,1-.94-1c-.13,1.32-.52,2.61-1.3,3.12A1.34,1.34,0,0,1,152.81,143.05Zm.61-4.87a2.65,2.65,0,0,0-1.66,1.38,1.59,1.59,0,0,0,.42,2.18c.54.44.77.29.84.24.65-.42,1-2.36.87-3.84a.49.49,0,0,1-.41.05Z" style="fill: rgb(224, 224, 224); transform-origin: 153.754px 139.762px;" id="el5vxx5gy7fvb" class="animable"></path><path d="M173.72,129.46a.49.49,0,0,1-.44-.26h0l-4-7.27a.5.5,0,0,1,.2-.68.5.5,0,0,1,.68.2l2,3.6a2.24,2.24,0,0,1,.63-1.44,1.77,1.77,0,0,1,1.94-.47,2.34,2.34,0,0,1,1.38,2.06,2.71,2.71,0,0,1-1.61,2.56.51.51,0,0,1-.68-.2.52.52,0,0,1,.21-.68,1.71,1.71,0,0,0,1.09-1.63,1.39,1.39,0,0,0-.76-1.18.79.79,0,0,0-.87.25c-.92.9.21,3.55.68,4.41h0a.51.51,0,0,1-.2.68A.53.53,0,0,1,173.72,129.46Z" style="fill: rgb(224, 224, 224); transform-origin: 172.665px 125.324px;" id="elyfjnbozlht" class="animable"></path><path d="M202.21,237.11a.54.54,0,0,1-.35-.14l-5.65-5.35a.5.5,0,0,1,.69-.72l5.65,5.34a.5.5,0,0,1,0,.71A.52.52,0,0,1,202.21,237.11Z" style="fill: rgb(224, 224, 224); transform-origin: 199.39px 233.948px;" id="el54t9c9xu1y6" class="animable"></path><path d="M197.48,237.43a.54.54,0,0,1-.28-.08.51.51,0,0,1-.14-.7l4.73-7.06a.5.5,0,0,1,.7-.14.49.49,0,0,1,.13.69l-4.73,7.07A.49.49,0,0,1,197.48,237.43Z" style="fill: rgb(224, 224, 224); transform-origin: 199.843px 233.397px;" id="elf0prbp7ry4" class="animable"></path><path d="M207.77,232.39a.49.49,0,0,1-.47-.32.5.5,0,0,1,.29-.65l5.65-2.1a.52.52,0,0,1,.65.3.5.5,0,0,1-.3.64l-5.65,2.1Z" style="fill: rgb(224, 224, 224); transform-origin: 210.593px 230.841px;" id="el5qu2m7ycego" class="animable"></path><path d="M219.56,227.44a.54.54,0,0,1-.33-.12l-3.43-3a.5.5,0,1,1,.66-.74l3.44,3a.5.5,0,0,1,0,.7A.52.52,0,0,1,219.56,227.44Z" style="fill: rgb(224, 224, 224); transform-origin: 217.812px 225.423px;" id="elgwexs6ni9lq" class="animable"></path><path d="M217.85,235.68l-.14,0a.49.49,0,0,1-.34-.62l4.35-14.94a.5.5,0,1,1,1,.28l-4.35,14.94A.51.51,0,0,1,217.85,235.68Z" style="fill: rgb(224, 224, 224); transform-origin: 220.043px 227.711px;" id="el3xgo1enbzen" class="animable"></path><path d="M277.91,330.13a.45.45,0,0,1-.34-.14l-5.65-5.34a.5.5,0,0,1,0-.71.49.49,0,0,1,.7,0l5.65,5.35a.49.49,0,0,1,0,.7A.48.48,0,0,1,277.91,330.13Z" style="fill: rgb(224, 224, 224); transform-origin: 275.095px 326.962px;" id="el1qra802f9qu" class="animable"></path><path d="M273.18,330.46a.49.49,0,0,1-.28-.09.5.5,0,0,1-.14-.69l4.73-7.07a.5.5,0,0,1,.84.56l-4.74,7.06A.48.48,0,0,1,273.18,330.46Z" style="fill: rgb(224, 224, 224); transform-origin: 275.545px 326.424px;" id="ell7j0kl5g6kc" class="animable"></path><path d="M283.47,325.42a.5.5,0,0,1-.18-1l5.65-2.1a.5.5,0,1,1,.35.93l-5.65,2.11Z" style="fill: rgb(224, 224, 224); transform-origin: 286.27px 323.847px;" id="el9t3mwtz7sue" class="animable"></path><path d="M295.27,320.47a.55.55,0,0,1-.34-.13l-3.43-3a.5.5,0,1,1,.66-.75l3.44,3a.5.5,0,0,1-.33.88Z" style="fill: rgb(224, 224, 224); transform-origin: 293.544px 318.46px;" id="elsksw1rb2kr" class="animable"></path><path d="M293.55,328.7h-.14a.5.5,0,0,1-.34-.62l4.35-14.94a.5.5,0,0,1,1,.28L294,328.34A.51.51,0,0,1,293.55,328.7Z" style="fill: rgb(224, 224, 224); transform-origin: 295.744px 320.732px;" id="el8ig12u7y6ls" class="animable"></path><path d="M320.44,296.6a2.76,2.76,0,0,1-.63-.07c-1.38-.31-2.49-1.62-3.3-3.89-1.57-4.4.27-7.14,1.62-8.45h-6.68l.22,10.9a.49.49,0,0,1-.49.51.51.51,0,0,1-.51-.49l-.23-11.41a.5.5,0,0,1,.5-.51h8.63a.5.5,0,0,1,.24.93c-.18.1-4.38,2.53-2.36,8.18.68,1.9,1.57,3,2.57,3.25a2.91,2.91,0,0,0,2.36-.8.5.5,0,1,1,.7.71A4.16,4.16,0,0,1,320.44,296.6Z" style="fill: rgb(224, 224, 224); transform-origin: 316.849px 289.895px;" id="el6q78suqbxdd" class="animable"></path><path d="M241.66,276.4h0l-11.78-.86a.48.48,0,0,1-.46-.43l-2.31-16.6a.48.48,0,0,1,.21-.48l9.82-6.76a.5.5,0,0,1,.32-.08l13,.91a.5.5,0,0,1,.46.47l.82,16.48a.54.54,0,0,1-.21.44L242,276.31A.48.48,0,0,1,241.66,276.4Zm-11.34-1.83,11.2.82,9.17-6.56-.77-15.76-12.39-.87-9.42,6.48Z" style="fill: rgb(224, 224, 224); transform-origin: 239.422px 263.796px;" id="eld528js3k1fe" class="animable"></path><path d="M229.89,275.54a.51.51,0,0,1-.41-.2.51.51,0,0,1,.11-.7l9.51-6.85a.53.53,0,0,1,.33-.09l11.81.88a.5.5,0,1,1-.07,1l-11.64-.87-9.35,6.74A.52.52,0,0,1,229.89,275.54Z" style="fill: rgb(224, 224, 224); transform-origin: 240.547px 271.619px;" id="el4db589kdc74" class="animable"></path><path d="M239.39,268.7a.51.51,0,0,1-.5-.44l-2-16.51a.5.5,0,1,1,1-.12l2,16.51a.52.52,0,0,1-.44.56Z" style="fill: rgb(224, 224, 224); transform-origin: 238.389px 259.943px;" id="elgkymu8d7wms" class="animable"></path><path d="M240.55,260.44h-.06l-13-1.5a.49.49,0,0,1-.44-.56.51.51,0,0,1,.55-.44l12.78,1.48,9.69-7.22a.5.5,0,0,1,.7.1.51.51,0,0,1-.11.7l-9.84,7.34A.47.47,0,0,1,240.55,260.44Z" style="fill: rgb(224, 224, 224); transform-origin: 238.954px 256.27px;" id="eln3ndg1j9z5o" class="animable"></path><path d="M241.66,276.4a.5.5,0,0,1-.5-.46l-1.11-16a.5.5,0,0,1,.46-.54.51.51,0,0,1,.54.47l1.11,16a.5.5,0,0,1-.46.53Z" style="fill: rgb(224, 224, 224); transform-origin: 241.105px 267.9px;" id="el4jvb8a0b5yp" class="animable"></path><path d="M175.09,313a.46.46,0,0,1-.28-.08.49.49,0,0,1-.22-.43l.41-22a.5.5,0,0,1,.28-.44.49.49,0,0,1,.51,0l18.84,13.23a.53.53,0,0,1,.21.45.51.51,0,0,1-.29.41L175.29,313A.45.45,0,0,1,175.09,313Zm.9-21.52-.39,20.24,17.74-8.06Z" style="fill: rgb(224, 224, 224); transform-origin: 184.715px 301.495px;" id="el5i1hlymk429" class="animable"></path><path d="M184.68,308.52a.5.5,0,0,1-.45-.26l-9.17-17.49a.5.5,0,1,1,.89-.47l9.17,17.49a.51.51,0,0,1-.21.68A.59.59,0,0,1,184.68,308.52Z" style="fill: rgb(224, 224, 224); transform-origin: 180.088px 299.275px;" id="elvaoa9g25hvq" class="animable"></path><path d="M186.94,307.63a.49.49,0,0,1-.45-.28l-1.28-2.54-1.79.86a.49.49,0,0,1-.66-.23.5.5,0,0,1,.23-.67l2.23-1.08a.5.5,0,0,1,.67.23l1.49,3a.49.49,0,0,1-.22.67A.59.59,0,0,1,186.94,307.63Z" style="fill: rgb(224, 224, 224); transform-origin: 185.073px 305.634px;" id="elligvxto09xi" class="animable"></path><path d="M371.46,312a.49.49,0,0,1-.37-.16l-8-8.53a.5.5,0,1,1,.73-.68l8,8.53a.49.49,0,0,1,0,.7A.51.51,0,0,1,371.46,312Z" style="fill: rgb(224, 224, 224); transform-origin: 367.449px 307.223px;" id="el6b3l1hfkljr" class="animable"></path><path d="M364.83,311.44a.45.45,0,0,1-.29-.1.49.49,0,0,1-.11-.7l6.69-9.15a.48.48,0,0,1,.69-.11.49.49,0,0,1,.11.7l-6.69,9.15A.48.48,0,0,1,364.83,311.44Z" style="fill: rgb(224, 224, 224); transform-origin: 368.175px 306.36px;" id="el8rxc3tfpeq" class="animable"></path><path d="M378.75,303.43h-4.49a.51.51,0,0,1-.48-.34.49.49,0,0,1,.17-.55c.81-.65,2.85-2.6,2.58-3.93a1.13,1.13,0,0,0-.49-.81,1.46,1.46,0,0,0-1.09,0,.49.49,0,0,1-.64-.29.5.5,0,0,1,.28-.64,2.43,2.43,0,0,1,1.92.07,2.06,2.06,0,0,1,1,1.49c.29,1.45-1,3-1.95,4h3.19a.5.5,0,0,1,.5.5A.5.5,0,0,1,378.75,303.43Z" style="fill: rgb(224, 224, 224); transform-origin: 376.502px 300.068px;" id="elym7elcbwpfo" class="animable"></path><path d="M116.14,147.58a.5.5,0,0,1-.37-.16l-8-8.53a.5.5,0,0,1,.74-.68l8,8.53a.51.51,0,0,1,0,.71A.48.48,0,0,1,116.14,147.58Z" style="fill: rgb(224, 224, 224); transform-origin: 112.146px 142.815px;" id="elb43f4w66za" class="animable"></path><path d="M109.51,147.06a.52.52,0,0,1-.29-.09.51.51,0,0,1-.11-.7l6.69-9.16a.5.5,0,1,1,.81.59l-6.69,9.16A.51.51,0,0,1,109.51,147.06Z" style="fill: rgb(224, 224, 224); transform-origin: 112.862px 141.981px;" id="elyjd6q1zsai" class="animable"></path><path d="M123.44,139.05h-4.5a.5.5,0,0,1-.31-.89c.81-.64,2.85-2.6,2.58-3.92a1.12,1.12,0,0,0-.49-.82,1.48,1.48,0,0,0-1.08,0,.5.5,0,0,1-.65-.29.5.5,0,0,1,.29-.64,2.48,2.48,0,0,1,1.92.07,2,2,0,0,1,1,1.5c.3,1.45-1,3-2,4h3.2a.51.51,0,0,1,.5.5A.5.5,0,0,1,123.44,139.05Z" style="fill: rgb(224, 224, 224); transform-origin: 121.171px 135.69px;" id="el10lmg53q3cxp" class="animable"></path></g><g id="freepik--Shadow--inject-175" class="animable" style="transform-origin: 250px 416.24px;"><ellipse id="freepik--path--inject-175" cx="250" cy="416.24" rx="193.89" ry="11.32" style="fill: rgb(245, 245, 245); transform-origin: 250px 416.24px;" class="animable"></ellipse></g><g id="freepik--Text--inject-175" class="animable animator-active" style="transform-origin: 250px 172.626px;"><path d="M291.81,148.62a.28.28,0,0,1,0,.54L265,155.31l-1.28.3L250,158.75l-41.81-9.59a.28.28,0,0,1,0-.54l41.23-9.46a2.53,2.53,0,0,1,1.16,0l13.13,3,1.28.3Z" style="fill: rgb(38, 50, 56); transform-origin: 250px 148.921px;" id="elflzmlktejlt" class="animable"></path><path d="M273.41,148.89c-.47-1.56-10.76-2.8-23.41-2.8s-22.94,1.24-23.41,2.8h0v19.62a.66.66,0,0,0,.67.66h45.52a.66.66,0,0,0,.67-.66V148.89Z" style="fill: rgb(38, 50, 56); transform-origin: 250.02px 157.63px;" id="elk27ygylcwvb" class="animable"></path><g id="eluxcn28yfu4e"><path d="M273.41,148.89c-.47-1.56-10.76-2.8-23.41-2.8s-22.94,1.24-23.41,2.8h0v19.62a.66.66,0,0,0,.67.66h45.52a.66.66,0,0,0,.67-.66V148.89Z" style="fill: rgb(255, 255, 255); opacity: 0.2; transform-origin: 250.02px 157.63px;" class="animable"></path></g><g id="elqplvshjac3"><path d="M293,148.89l-2.18.5L265,143.47l-1.28-.3L250,140l-40.81,9.36-2.18-.5,42.41-9.73a2.53,2.53,0,0,1,1.16,0l13.13,3,1.28.3Z" style="fill: rgb(255, 255, 255); opacity: 0.2; transform-origin: 250.005px 144.226px;" class="animable"></path></g><path d="M266,162.4v4.14h-.33l-.24-2.55-.25,2.55h-.54l-.25-2.55-.25,2.55h-.54l-.25-2.55-.24,2.55h-.33V162.4a1.61,1.61,0,0,1,1-1.47V142.17l1.28.3v18.46A1.61,1.61,0,0,1,266,162.4Z" style="fill: rgb(64, 123, 255); transform-origin: 264.39px 154.355px;" id="elguhgxi6j5ka" class="animable"></path><path d="M139.89,201v4.76H117V175.2h22.3V180H122.65v7.94H137.4v4.67H122.65V201Z" style="fill: rgb(64, 123, 255); transform-origin: 128.445px 190.48px;" id="elkdofpk94jh" class="animable"></path><path d="M146.22,175.2h13.35c9.91,0,16.67,6.11,16.67,15.28s-6.76,15.27-16.67,15.27H146.22ZM159.31,201c6.81,0,11.22-4.15,11.22-10.47S166.12,180,159.31,180h-7.42V201Z" style="fill: rgb(64, 123, 255); transform-origin: 161.23px 190.475px;" id="elt1e5ww1kbt7" class="animable"></path><path d="M182,192.44V175.2h5.68v17c0,6.29,2.83,9,7.77,9s7.72-2.7,7.72-9v-17h5.59v17.24c0,8.9-5,13.75-13.36,13.75S182,201.34,182,192.44Z" style="fill: rgb(64, 123, 255); transform-origin: 195.38px 190.695px;" id="el09d4yomjkcx" class="animable"></path><path d="M214.52,190.48c0-9.12,7-15.71,16.36-15.71,5,0,9.26,1.79,12.09,5.1l-3.66,3.45a10.74,10.74,0,0,0-8.16-3.58c-6.33,0-10.91,4.45-10.91,10.74s4.58,10.73,10.91,10.73a10.65,10.65,0,0,0,8.16-3.62l3.66,3.49c-2.83,3.32-7.11,5.11-12.13,5.11C221.5,206.19,214.52,199.6,214.52,190.48Z" style="fill: rgb(64, 123, 255); transform-origin: 228.745px 190.48px;" id="elkp0rw39wwg" class="animable"></path><path d="M267.59,198.68H252.31l-3,7.07h-5.85L257.2,175.2h5.59l13.79,30.55h-5.94Zm-1.88-4.45L260,180.88l-5.72,13.35Z" style="fill: rgb(64, 123, 255); transform-origin: 260.02px 190.475px;" id="elxyjbal4tklp" class="animable"></path><path d="M285.13,180H275v-4.8h25.92V180H290.81v25.75h-5.68Z" style="fill: rgb(64, 123, 255); transform-origin: 287.96px 190.475px;" id="elap72adqgi2j" class="animable"></path><path d="M305.21,175.2h5.67v30.55h-5.67Z" style="fill: rgb(64, 123, 255); transform-origin: 308.045px 190.475px;" id="elczbqh9i8udw" class="animable"></path><path d="M317,190.48c0-9,7-15.71,16.45-15.71s16.45,6.63,16.45,15.71-7,15.71-16.45,15.71S317,199.51,317,190.48Zm27.18,0a10.74,10.74,0,1,0-10.73,10.73A10.41,10.41,0,0,0,344.13,190.48Z" style="fill: rgb(64, 123, 255); transform-origin: 333.45px 190.48px;" id="el2ldhouj85ku" class="animable"></path><path d="M383,175.2v30.55h-4.67l-16.84-20.68v20.68h-5.63V175.2h4.67l16.84,20.69V175.2Z" style="fill: rgb(64, 123, 255); transform-origin: 369.43px 190.475px;" id="elz6v8cuk18yn" class="animable"></path><g id="eln08xxlrfezc"><g style="opacity: 0.3; transform-origin: 250px 190.48px;" class="animable"><path d="M139.89,201v4.76H117V175.2h22.3V180H122.65v7.94H137.4v4.67H122.65V201Z" style="fill: rgb(255, 255, 255); transform-origin: 128.445px 190.48px;" id="eltpq3yfesu3j" class="animable"></path><path d="M146.22,175.2h13.35c9.91,0,16.67,6.11,16.67,15.28s-6.76,15.27-16.67,15.27H146.22ZM159.31,201c6.81,0,11.22-4.15,11.22-10.47S166.12,180,159.31,180h-7.42V201Z" style="fill: rgb(255, 255, 255); transform-origin: 161.23px 190.475px;" id="elxtd65pq5ca" class="animable"></path><path d="M182,192.44V175.2h5.68v17c0,6.29,2.83,9,7.77,9s7.72-2.7,7.72-9v-17h5.59v17.24c0,8.9-5,13.75-13.36,13.75S182,201.34,182,192.44Z" style="fill: rgb(255, 255, 255); transform-origin: 195.38px 190.695px;" id="el3ksq42m6f9u" class="animable"></path><path d="M214.52,190.48c0-9.12,7-15.71,16.36-15.71,5,0,9.26,1.79,12.09,5.1l-3.66,3.45a10.74,10.74,0,0,0-8.16-3.58c-6.33,0-10.91,4.45-10.91,10.74s4.58,10.73,10.91,10.73a10.65,10.65,0,0,0,8.16-3.62l3.66,3.49c-2.83,3.32-7.11,5.11-12.13,5.11C221.5,206.19,214.52,199.6,214.52,190.48Z" style="fill: rgb(255, 255, 255); transform-origin: 228.745px 190.48px;" id="el53e20zhkkhe" class="animable"></path><path d="M267.59,198.68H252.31l-3,7.07h-5.85L257.2,175.2h5.59l13.79,30.55h-5.94Zm-1.88-4.45L260,180.88l-5.72,13.35Z" style="fill: rgb(255, 255, 255); transform-origin: 260.02px 190.475px;" id="elj3n9wc4fqn8" class="animable"></path><path d="M285.13,180H275v-4.8h25.92V180H290.81v25.75h-5.68Z" style="fill: rgb(255, 255, 255); transform-origin: 287.96px 190.475px;" id="eldsihpwpxwrn" class="animable"></path><path d="M305.21,175.2h5.67v30.55h-5.67Z" style="fill: rgb(255, 255, 255); transform-origin: 308.045px 190.475px;" id="eleati0ygnbi" class="animable"></path><path d="M317,190.48c0-9,7-15.71,16.45-15.71s16.45,6.63,16.45,15.71-7,15.71-16.45,15.71S317,199.51,317,190.48Zm27.18,0a10.74,10.74,0,1,0-10.73,10.73A10.41,10.41,0,0,0,344.13,190.48Z" style="fill: rgb(255, 255, 255); transform-origin: 333.45px 190.48px;" id="elevy6ar1gbba" class="animable"></path><path d="M383,175.2v30.55h-4.67l-16.84-20.68v20.68h-5.63V175.2h4.67l16.84,20.69V175.2Z" style="fill: rgb(255, 255, 255); transform-origin: 369.43px 190.475px;" id="elxs2xs0ixcp" class="animable"></path></g></g></g><g id="freepik--Globe--inject-175" class="animable" style="transform-origin: 386.573px 347.22px;"><rect x="377.08" y="385.36" width="6" height="19.74" style="fill: rgb(38, 50, 56); transform-origin: 380.08px 395.23px;" id="el0qy847pf4hko" class="animable"></rect><g id="elia9pi65szps"><g style="isolation: isolate; opacity: 0.2; transform-origin: 380.08px 395.23px;" class="animable"><rect x="377.08" y="385.36" width="6" height="19.74" style="fill: rgb(255, 255, 255); transform-origin: 380.08px 395.23px;" id="el85k1g609dlo" class="animable"></rect></g></g><path d="M380,388.53a56.59,56.59,0,0,1-26.76-6.72l2.84-5.29a50.88,50.88,0,0,0,72.51-60.16,50,50,0,0,0-7.22-14.43,51.1,51.1,0,0,0-17.3-15.16l2.83-5.29a58,58,0,0,1,8.94,5.93,56.75,56.75,0,0,1,10.4,11,55.78,55.78,0,0,1,8.07,16.14,56.89,56.89,0,0,1-54.31,74Z" style="fill: rgb(38, 50, 56); transform-origin: 395.092px 335.015px;" id="elwj697kmln2" class="animable"></path><g id="elpe6w6kr2syj"><g style="isolation: isolate; opacity: 0.3; transform-origin: 395.092px 335.015px;" class="animable"><path d="M380,388.53a56.59,56.59,0,0,1-26.76-6.72l2.84-5.29a50.88,50.88,0,0,0,72.51-60.16,50,50,0,0,0-7.22-14.43,51.1,51.1,0,0,0-17.3-15.16l2.83-5.29a58,58,0,0,1,8.94,5.93,56.75,56.75,0,0,1,10.4,11,55.78,55.78,0,0,1,8.07,16.14,56.89,56.89,0,0,1-54.31,74Z" style="fill: rgb(255, 255, 255); transform-origin: 395.092px 335.015px;" id="el1a2qmdqx9pp" class="animable"></path></g></g><path d="M351.31,386.81a1.42,1.42,0,0,1-.71-.18,1.5,1.5,0,0,1-.61-2l57.54-107.34a1.5,1.5,0,1,1,2.65,1.41L352.63,386A1.51,1.51,0,0,1,351.31,386.81Z" style="fill: rgb(38, 50, 56); transform-origin: 380.091px 331.65px;" id="elfsgo3kq1k7k" class="animable"></path><g id="eldb15n96m1uw"><g style="isolation: isolate; opacity: 0.4; transform-origin: 380.091px 331.65px;" class="animable"><path d="M351.31,386.81a1.42,1.42,0,0,1-.71-.18,1.5,1.5,0,0,1-.61-2l57.54-107.34a1.5,1.5,0,1,1,2.65,1.41L352.63,386A1.51,1.51,0,0,1,351.31,386.81Z" style="fill: rgb(255, 255, 255); transform-origin: 380.091px 331.65px;" id="elh32yy9w36wo" class="animable"></path></g></g><path d="M369.11,403.64h21.94a2.66,2.66,0,0,1,2.66,2.66v4.9a0,0,0,0,1,0,0H366.46a0,0,0,0,1,0,0v-4.9A2.66,2.66,0,0,1,369.11,403.64Z" style="fill: rgb(38, 50, 56); transform-origin: 380.085px 407.42px;" id="elhjfsnvq52z9" class="animable"></path><path d="M382.33,287.82a43.88,43.88,0,1,1-46.07,41.57A43.88,43.88,0,0,1,382.33,287.82Z" style="fill: rgb(64, 123, 255); transform-origin: 380.082px 331.642px;" id="eln3946y4be1f" class="animable"></path><g id="elmk43dttypq"><path d="M423.9,333.89A43.84,43.84,0,1,1,393.79,290a43.2,43.2,0,0,1,12.36,6.4A43.78,43.78,0,0,1,423.9,333.89Z" style="fill: rgb(255, 255, 255); opacity: 0.2; transform-origin: 380.117px 331.653px;" class="animable"></path></g><g id="elbxw58zovok"><path d="M405.64,296a1.22,1.22,0,0,1-.19-.12,2,2,0,0,0-.4-.27c-1.82-1-1.31,2.53-3,3.33s-4.67-.64-4.31-1.68-3.06-3.93-4-4.39a2.93,2.93,0,0,0-3.92,2.76c-.14,3,1.51,4.78,1.05,5.69s-.45,1.19-3.48,2.64-5.22-.4-7.05,1.25.54,2.57-.19,6.57-1.81,1.13-4,1.56-.94-2.21-.66-3.75-2-2-3-2.12-3.5-.42-3.18-3.52.16-6-4.09-5.76c-2.19.14-3.38-3-4-6.16A44,44,0,0,0,338,319.12c.23-.05.43.27.75,1.07,1,2.5,1.93,5,3.2,6.52a4.57,4.57,0,0,1,1,4.56c-.53,1.23-3.11,2-3.16,2.85s-2.47,2-2.85,2.78a.43.43,0,0,1-.43.28,43.73,43.73,0,0,0,17.85,30c1.09-2.84,3-5.09,4.28-5.16,2.68-.14,10.95-1.45,7.91-5.1s-6.29-7-6.29-7a20.59,20.59,0,0,1,2.14-2.71c.49-.31-1.1-1.22,1.69-1.52s3-.32,1.83-1.66-3.1-.32-1.82-2,2.68-3,4.06-1.14.54,2.85,1,3.4,4.59-.3,4.59-.3,1.07,1.49.61,1.82a23.77,23.77,0,0,0-2.07,2.81,6.49,6.49,0,0,1-1.59,2.47c-.84.49,2.3,3.68,3.24,4.17s1.33.89,2.14.68,2.38-1.9,2.95-2.41,4,.74,4,.74a22.19,22.19,0,0,1,3.61,2.61,3.46,3.46,0,0,0,4.27.48c.71-.64.67-2.38,2-1.78s1.78,1.22,2.7,4.45S402,368,401.32,370a43.34,43.34,0,0,0,10.85-8.47c-3.87-1.29-5.31-2.78-5.89-3.63-.75-1.11-.31-1.12.11-3s3.95-3,4.52-3.51,3.32-3.93,4.67-4.29,1.25-2.16,1.25-2.16.25.47.8-.72-.05-2.41,1.77-4.06a9.44,9.44,0,0,1,4-1.78,42.22,42.22,0,0,0,.47-4.55,43.2,43.2,0,0,0-.32-8l-4.76,1.81a14.73,14.73,0,0,1-3.32-.32c-.52-.3-3-1.9-4.92-.92s-2.11-.65-5.71-1.24,1.77-5.68,2.61-6.44,1-.36,3.43-1.57,2-3.09,2-3.09a31.75,31.75,0,0,0-5.15-5.8c-2.36-1.86,1-2.05,6.85-3.74A43.46,43.46,0,0,0,405.64,296Zm-16,55.5c-.84,1.27-2-.25-2-.25-3.41-1-3.74-3.77-2.58-4.82s1.73-4.63,3.55-3.2a44.59,44.59,0,0,0,4.59,3s2-5.16,2.09-.36,2.82,3.34.06,4.81S390.5,350.2,389.66,351.47Zm13.33,1.3a14.69,14.69,0,0,1-.41,3.64L400,357.75c-1.91-1.59-1.17-4-.13-4.22S402.85,351.39,403,352.77Zm-4.69-37.08c.67,1.31-1.37,2.16-3.63,5.47s-3.65.61-3.65.61-4.58-3.66-3.09-5.26.37-3.71,2.57-4.93c1.37-.76,2.73-.1,4,1.31S397.64,314.39,398.3,315.69Z" style="fill: rgb(255, 255, 255); opacity: 0.5; transform-origin: 380.22px 331.015px;" class="animable"></path></g><g id="elyij38rbr9sj"><path d="M393.79,290c.63,13.2-3.6,27.45-12.88,39.69-10.27,13.55-24.59,21.81-38.86,23.89A43.9,43.9,0,0,1,393.79,290Z" style="fill: rgb(255, 255, 255); opacity: 0.2; transform-origin: 365.035px 320.698px;" class="animable"></path></g><g id="el6ugskwcwivl"><g style="isolation: isolate; opacity: 0.3; transform-origin: 380.085px 407.42px;" class="animable"><path d="M369.11,403.64h21.94a2.66,2.66,0,0,1,2.66,2.66v4.9a0,0,0,0,1,0,0H366.46a0,0,0,0,1,0,0v-4.9A2.66,2.66,0,0,1,369.11,403.64Z" style="fill: rgb(255, 255, 255); transform-origin: 380.085px 407.42px;" id="elet7ec40ka0s" class="animable"></path></g></g><path d="M357.27,409.76h45.62a3.1,3.1,0,0,1,3.1,3.1v5.09a0,0,0,0,1,0,0H354.17a0,0,0,0,1,0,0v-5.09A3.1,3.1,0,0,1,357.27,409.76Z" style="fill: rgb(38, 50, 56); transform-origin: 380.08px 413.855px;" id="elc24w7559eg9" class="animable"></path><g id="ellrseezmk1r"><g style="isolation: isolate; opacity: 0.4; transform-origin: 380.08px 413.855px;" class="animable"><path d="M357.27,409.76h45.62a3.1,3.1,0,0,1,3.1,3.1v5.09a0,0,0,0,1,0,0H354.17a0,0,0,0,1,0,0v-5.09A3.1,3.1,0,0,1,357.27,409.76Z" style="fill: rgb(255, 255, 255); transform-origin: 380.08px 413.855px;" id="eldfyyqwp239" class="animable"></path></g></g></g><g id="freepik--Books--inject-175" class="animable" style="transform-origin: 187.24px 365.57px;"><g id="el1k6sw6vdjfa"><rect x="113.81" y="356.2" width="43.72" height="18.96" style="fill: rgb(64, 123, 255); transform-origin: 135.67px 365.68px; transform: rotate(180deg);" class="animable"></rect></g><g id="el6yfvyg38wx4"><rect x="113.81" y="356.2" width="43.72" height="18.96" style="fill: rgb(255, 255, 255); opacity: 0.8; transform-origin: 135.67px 365.68px; transform: rotate(180deg);" class="animable"></rect></g><g id="eletse4a612go"><polygon points="154.01 358.06 113.81 358.06 113.81 356.2 153.97 356.2 154.01 358.06" style="isolation: isolate; opacity: 0.2; transform-origin: 133.91px 357.13px;" class="animable"></polygon></g><g id="elad3nl4oxkfj"><polygon points="154.02 359.67 117.74 360.44 154.02 361.22 154.02 359.67" style="isolation: isolate; opacity: 0.2; transform-origin: 135.88px 360.445px;" class="animable"></polygon></g><g id="elpsaitv9jzii"><polygon points="154.02 366.68 115.6 367.33 154.02 367.88 154.02 366.68" style="isolation: isolate; opacity: 0.2; transform-origin: 134.81px 367.28px;" class="animable"></polygon></g><g id="ele4nq8pzny3g"><polygon points="154.02 370.78 115.94 371.55 154.02 372.32 154.02 370.78" style="isolation: isolate; opacity: 0.2; transform-origin: 134.98px 371.55px;" class="animable"></polygon></g><g id="elbq8fowzfe3"><polygon points="113.81 362.37 150.64 363.49 113.81 364.25 113.81 362.37" style="isolation: isolate; opacity: 0.2; transform-origin: 132.225px 363.31px;" class="animable"></polygon></g><path d="M211.37,365.58a8.6,8.6,0,0,1-8.59,8.59h-91a.63.63,0,0,0-.63.63v.68a.63.63,0,0,0,.63.63h91.46a10.55,10.55,0,0,0,10.54-10.62A10.72,10.72,0,0,0,203,355H111.79a.63.63,0,0,0-.63.63v.68a.64.64,0,0,0,.63.64h90.73A8.83,8.83,0,0,1,211.37,365.58Z" style="fill: rgb(38, 50, 56); transform-origin: 162.465px 365.555px;" id="elri3d8lmhxcb" class="animable"></path><g id="elwmmtour43p"><path d="M211.37,365.58a8.6,8.6,0,0,1-8.59,8.59h-91a.63.63,0,0,0-.63.63v.68a.63.63,0,0,0,.63.63h91.46a10.55,10.55,0,0,0,10.54-10.62A10.72,10.72,0,0,0,203,355H111.79a.63.63,0,0,0-.63.63v.68a.64.64,0,0,0,.63.64h90.73A8.83,8.83,0,0,1,211.37,365.58Z" style="fill: rgb(255, 255, 255); opacity: 0.4; transform-origin: 162.465px 365.555px;" class="animable"></path></g><path d="M244.55,365.69h0a9.49,9.49,0,0,1-9.49,9.5H154v-19h81A9.49,9.49,0,0,1,244.55,365.69Z" style="fill: rgb(64, 123, 255); transform-origin: 199.275px 365.69px;" id="el5kzq7eshnz3" class="animable"></path><g id="elz0arb6wdr9"><path d="M154,356.2v19h81.05a9.5,9.5,0,0,0,0-19Z" style="fill: rgb(255, 255, 255); opacity: 0.7; transform-origin: 199.275px 365.7px;" class="animable"></path></g><g id="elvsdylu5dii"><polygon points="154.02 361.22 154.02 359.67 234.8 360.32 154.02 361.22" style="isolation: isolate; opacity: 0.2; transform-origin: 194.41px 360.445px;" class="animable"></polygon></g><g id="el76z4zh15ipu"><polygon points="154.02 367.88 154.02 366.68 190.28 367.98 154.02 367.88" style="isolation: isolate; opacity: 0.2; transform-origin: 172.15px 367.33px;" class="animable"></polygon></g><g id="eluyiy57xcwwb"><polygon points="154.02 372.32 154.02 370.78 212.49 371.68 154.02 372.32" style="isolation: isolate; opacity: 0.2; transform-origin: 183.255px 371.55px;" class="animable"></polygon></g><g id="elfz25az67g0e"><path d="M235.19,358.05a6.33,6.33,0,0,1,4.22,1.63,15.68,15.68,0,0,0-1.19,3.08l-81,.63,80.85.2a10.89,10.89,0,0,0-.19,2,10.62,10.62,0,0,0,.27,2.34l-54.58,1.2,55.09.63a19.52,19.52,0,0,0,1.83,3.77,9.5,9.5,0,0,0-5.39-17.31H154v1.85Z" style="isolation: isolate; opacity: 0.2; transform-origin: 199.291px 364.875px;" class="animable"></path></g><path d="M243.8,365.58a8.6,8.6,0,0,1-8.59,8.59H152.65a.63.63,0,0,0-.63.63v.68a.63.63,0,0,0,.63.63h83a10.55,10.55,0,0,0,10.54-10.62A10.72,10.72,0,0,0,235.41,355H152.65a.63.63,0,0,0-.63.63v.68a.64.64,0,0,0,.63.64H235A8.83,8.83,0,0,1,243.8,365.58Z" style="fill: rgb(38, 50, 56); transform-origin: 199.105px 365.555px;" id="eluj59y0kyqxd" class="animable"></path><polygon points="234.8 363.17 234.8 370.78 232.04 368.03 229.37 370.7 229.37 363.17 234.8 363.17" style="fill: rgb(64, 123, 255); transform-origin: 232.085px 366.975px;" id="ely18s1lnfwi" class="animable"></polygon><g id="elcuwy56uepsr"><rect x="125.72" y="398.04" width="117.98" height="18.99" style="fill: rgb(64, 123, 255); transform-origin: 184.71px 407.535px; transform: rotate(180deg);" class="animable"></rect></g><g id="elq5cumcy7ub9"><rect x="125.72" y="398.04" width="117.98" height="18.99" style="fill: rgb(255, 255, 255); opacity: 0.7; transform-origin: 184.71px 407.535px; transform: rotate(180deg);" class="animable"></rect></g><g id="el502hyol8w5u"><polygon points="125.72 403.06 125.72 401.51 206.5 402.16 125.72 403.06" style="isolation: isolate; opacity: 0.2; transform-origin: 166.11px 402.285px;" class="animable"></polygon></g><g id="elbwz1lr6l5kg"><polygon points="125.72 409.71 125.72 408.52 161.99 409.82 125.72 409.71" style="isolation: isolate; opacity: 0.2; transform-origin: 143.855px 409.17px;" class="animable"></polygon></g><g id="el8vl179dk002"><polygon points="125.72 414.16 125.72 412.62 184.19 413.51 125.72 414.16" style="isolation: isolate; opacity: 0.2; transform-origin: 154.955px 413.39px;" class="animable"></polygon></g><g id="elr1c4vzu08b"><path d="M217.33,398,219,412.19,217,410a17.35,17.35,0,0,1-3.71,7,20.77,20.77,0,0,1-3-5.45l-55.1-.63,54.58-1.2a11.42,11.42,0,0,1-.27-2.34,10.72,10.72,0,0,1,.2-2l-80.85-.2,81-.64a15,15,0,0,1,1.19-3.07,6.31,6.31,0,0,0-4.23-1.63H125.72V398Z" style="isolation: isolate; opacity: 0.2; transform-origin: 172.36px 407.5px;" class="animable"></path></g><path d="M215.51,407.42a8.59,8.59,0,0,1-8.6,8.58H124.36a.64.64,0,0,0-.64.64v.68a.64.64,0,0,0,.64.63H252.79a10.55,10.55,0,0,0,10.54-10.62,10.71,10.71,0,0,0-10.81-10.46H124.36a.64.64,0,0,0-.64.63v.68a.64.64,0,0,0,.64.63h82.3A8.84,8.84,0,0,1,215.51,407.42Z" style="fill: rgb(64, 123, 255); transform-origin: 193.525px 407.41px;" id="eli5l0nshidum" class="animable"></path><g id="elg40fgkmlne"><path d="M215.51,407.42a8.59,8.59,0,0,1-8.6,8.58H124.36a.64.64,0,0,0-.64.64v.68a.64.64,0,0,0,.64.63H252.79a10.55,10.55,0,0,0,10.54-10.62,10.71,10.71,0,0,0-10.81-10.46H124.36a.64.64,0,0,0-.64.63v.68a.64.64,0,0,0,.64.63h82.3A8.84,8.84,0,0,1,215.51,407.42Z" style="isolation: isolate; opacity: 0.2; transform-origin: 193.525px 407.41px;" class="animable"></path></g><path d="M215.51,407.42a8.59,8.59,0,0,1-8.6,8.58H124.36a.64.64,0,0,0-.64.64v.68a.64.64,0,0,0,.64.63h83a10.53,10.53,0,0,0,10.53-10.62,10.71,10.71,0,0,0-10.81-10.46H124.36a.64.64,0,0,0-.64.63v.68a.64.64,0,0,0,.64.63h82.3A8.84,8.84,0,0,1,215.51,407.42Z" style="fill: rgb(64, 123, 255); transform-origin: 170.805px 407.41px;" id="el6bp2ls01zua" class="animable"></path><polygon points="206.5 405.01 206.5 412.62 203.75 409.87 201.08 412.54 201.08 405.01 206.5 405.01" style="fill: rgb(64, 123, 255); transform-origin: 203.79px 408.815px;" id="el4akfsbmdhsu" class="animable"></polygon><g id="elwcyu15qw6la"><path d="M215.51,407.42a8.59,8.59,0,0,1-8.6,8.58H124.36a.64.64,0,0,0-.64.64v.68a.64.64,0,0,0,.64.63h83a10.53,10.53,0,0,0,10.53-10.62,10.71,10.71,0,0,0-10.81-10.46H124.36a.64.64,0,0,0-.64.63v.68a.64.64,0,0,0,.64.63h82.3A8.84,8.84,0,0,1,215.51,407.42Z" style="fill: rgb(255, 255, 255); opacity: 0.2; transform-origin: 170.805px 407.41px;" class="animable"></path></g><g id="eli6vcxsqdbkd"><rect x="122.24" y="377.12" width="117.98" height="18.99" style="fill: rgb(64, 123, 255); transform-origin: 181.23px 386.615px; transform: rotate(180deg);" class="animable"></rect></g><g id="elawe1ln5lf7m"><rect x="122.24" y="377.12" width="117.98" height="18.99" style="fill: rgb(255, 255, 255); opacity: 0.8; transform-origin: 181.23px 386.615px; transform: rotate(180deg);" class="animable"></rect></g><g id="eljvg0fqk5hp"><polygon points="122.24 382.14 122.24 380.59 203.02 381.24 122.24 382.14" style="isolation: isolate; opacity: 0.2; transform-origin: 162.63px 381.365px;" class="animable"></polygon></g><g id="elzzbx2kmq56q"><polygon points="122.24 388.79 122.24 387.6 158.51 388.9 122.24 388.79" style="isolation: isolate; opacity: 0.2; transform-origin: 140.375px 388.25px;" class="animable"></polygon></g><g id="elqowjjj4l4lc"><polygon points="122.24 393.24 122.24 391.7 180.71 392.59 122.24 393.24" style="isolation: isolate; opacity: 0.2; transform-origin: 151.475px 392.47px;" class="animable"></polygon></g><g id="elyr9dy0o7zeq"><path d="M213.85,377.12l1.71,14.15-2-2.15a17.35,17.35,0,0,1-3.71,7,20.57,20.57,0,0,1-3-5.45l-55.1-.63,54.58-1.19a11.51,11.51,0,0,1-.26-2.35,10.89,10.89,0,0,1,.19-2l-80.85-.2,81-.63a15.08,15.08,0,0,1,1.19-3.08,6.28,6.28,0,0,0-4.22-1.62H122.24v-1.86Z" style="isolation: isolate; opacity: 0.2; transform-origin: 168.9px 386.615px;" class="animable"></path></g><path d="M212,386.5a8.59,8.59,0,0,1-8.6,8.58H120.88a.64.64,0,0,0-.63.64v.68a.63.63,0,0,0,.63.63h122a10.55,10.55,0,0,0,10.54-10.62A10.73,10.73,0,0,0,242.55,376H120.88a.63.63,0,0,0-.63.63v.68a.64.64,0,0,0,.63.64h82.3A8.84,8.84,0,0,1,212,386.5Z" style="fill: rgb(64, 123, 255); transform-origin: 186.835px 386.515px;" id="el1lx7x2ik6mx" class="animable"></path><g id="el4kmft20lbd7"><path d="M212,386.5a8.59,8.59,0,0,1-8.6,8.58H120.88a.64.64,0,0,0-.63.64v.68a.63.63,0,0,0,.63.63h122a10.55,10.55,0,0,0,10.54-10.62A10.73,10.73,0,0,0,242.55,376H120.88a.63.63,0,0,0-.63.63v.68a.64.64,0,0,0,.63.64h82.3A8.84,8.84,0,0,1,212,386.5Z" style="fill: rgb(255, 255, 255); opacity: 0.4; transform-origin: 186.835px 386.515px;" class="animable"></path></g><path d="M212,386.5a8.59,8.59,0,0,1-8.6,8.58H120.88a.64.64,0,0,0-.63.64v.68a.63.63,0,0,0,.63.63h83a10.55,10.55,0,0,0,10.54-10.62A10.73,10.73,0,0,0,203.64,376H120.88a.63.63,0,0,0-.63.63v.68a.64.64,0,0,0,.63.64h82.3A8.84,8.84,0,0,1,212,386.5Z" style="fill: rgb(64, 123, 255); transform-origin: 167.335px 386.515px;" id="ellr1uqwbwmh" class="animable"></path><polygon points="196.48 381.39 196.48 389 193.72 386.24 191.06 388.91 191.06 381.39 196.48 381.39" style="fill: rgb(38, 50, 56); transform-origin: 193.77px 385.195px;" id="elv4drkpw2y4" class="animable"></polygon><g id="eld3bmkf5hte"><path d="M212,386.5a8.59,8.59,0,0,1-8.6,8.58H120.88a.64.64,0,0,0-.63.64v.68a.63.63,0,0,0,.63.63h83a10.55,10.55,0,0,0,10.54-10.62A10.73,10.73,0,0,0,203.64,376H120.88a.63.63,0,0,0-.63.63v.68a.64.64,0,0,0,.63.64h82.3A8.84,8.84,0,0,1,212,386.5Z" style="fill: rgb(255, 255, 255); opacity: 0.6; transform-origin: 167.335px 386.515px;" class="animable"></path></g><g id="elqgcuj8c2ec"><rect x="122.22" y="314.36" width="43.72" height="18.96" style="fill: rgb(64, 123, 255); transform-origin: 144.08px 323.84px; transform: rotate(180deg);" class="animable"></rect></g><g id="eluu0x01mvu7r"><rect x="122.22" y="314.36" width="43.72" height="18.96" style="fill: rgb(255, 255, 255); opacity: 0.7; transform-origin: 144.08px 323.84px; transform: rotate(180deg);" class="animable"></rect></g><g id="elpfl3awv3uan"><polygon points="162.42 316.22 122.22 316.22 122.22 314.36 162.38 314.36 162.42 316.22" style="isolation: isolate; opacity: 0.2; transform-origin: 142.32px 315.29px;" class="animable"></polygon></g><g id="ele2mtdbicud4"><polygon points="162.43 317.83 126.15 318.61 162.43 319.38 162.43 317.83" style="isolation: isolate; opacity: 0.2; transform-origin: 144.29px 318.605px;" class="animable"></polygon></g><g id="el3vrn27ks64e"><polygon points="162.43 324.85 124.01 325.49 162.43 326.04 162.43 324.85" style="isolation: isolate; opacity: 0.2; transform-origin: 143.22px 325.445px;" class="animable"></polygon></g><g id="el8eugby5cwgj"><polygon points="162.43 328.95 124.35 329.72 162.43 330.49 162.43 328.95" style="isolation: isolate; opacity: 0.2; transform-origin: 143.39px 329.72px;" class="animable"></polygon></g><g id="elzylmxhbo7wp"><polygon points="122.22 320.54 159.04 321.65 122.22 322.42 122.22 320.54" style="isolation: isolate; opacity: 0.2; transform-origin: 140.63px 321.48px;" class="animable"></polygon></g><path d="M219.78,323.75a8.6,8.6,0,0,1-8.6,8.58h-91a.63.63,0,0,0-.63.63v.68a.63.63,0,0,0,.63.63h91.46a10.53,10.53,0,0,0,10.54-10.61,10.72,10.72,0,0,0-10.81-10.47H120.2a.64.64,0,0,0-.63.64v.68a.63.63,0,0,0,.63.63h90.73A8.84,8.84,0,0,1,219.78,323.75Z" style="fill: rgb(64, 123, 255); transform-origin: 170.865px 323.73px;" id="elr4c454o2c5" class="animable"></path><g id="elo8n0od6jgij"><path d="M219.78,323.75a8.6,8.6,0,0,1-8.6,8.58h-91a.63.63,0,0,0-.63.63v.68a.63.63,0,0,0,.63.63h91.46a10.53,10.53,0,0,0,10.54-10.61,10.72,10.72,0,0,0-10.81-10.47H120.2a.64.64,0,0,0-.63.64v.68a.63.63,0,0,0,.63.63h90.73A8.84,8.84,0,0,1,219.78,323.75Z" style="fill: rgb(255, 255, 255); opacity: 0.4; transform-origin: 170.865px 323.73px;" class="animable"></path></g><path d="M253,323.86h0a9.49,9.49,0,0,1-9.49,9.49h-81v-19h81A9.49,9.49,0,0,1,253,323.86Z" style="fill: rgb(64, 123, 255); transform-origin: 207.755px 323.85px;" id="elmrq0rtb5wk" class="animable"></path><g id="eljqo8pnxbsd"><path d="M162.42,314.36v19h81.05a9.5,9.5,0,0,0,0-19Z" style="fill: rgb(255, 255, 255); opacity: 0.5; transform-origin: 207.695px 323.86px;" class="animable"></path></g><g id="el17mfzt0sz7"><polygon points="162.43 319.38 162.43 317.83 243.21 318.48 162.43 319.38" style="isolation: isolate; opacity: 0.2; transform-origin: 202.82px 318.605px;" class="animable"></polygon></g><g id="el8p3beesdcdn"><polygon points="162.43 326.04 162.43 324.85 198.69 326.14 162.43 326.04" style="isolation: isolate; opacity: 0.2; transform-origin: 180.56px 325.495px;" class="animable"></polygon></g><g id="elx65a3bagg4"><polygon points="162.43 330.49 162.43 328.95 220.9 329.84 162.43 330.49" style="isolation: isolate; opacity: 0.2; transform-origin: 191.665px 329.72px;" class="animable"></polygon></g><g id="elwd5arl6313"><path d="M243.6,316.22a6.32,6.32,0,0,1,4.22,1.62,15.93,15.93,0,0,0-1.19,3.08l-81,.64,80.85.2a10.34,10.34,0,0,0,.08,4.32l-54.58,1.19,55.09.64a19.7,19.7,0,0,0,1.83,3.76,9.5,9.5,0,0,0-5.39-17.31H162.42v1.86Z" style="isolation: isolate; opacity: 0.2; transform-origin: 207.706px 323.015px;" class="animable"></path></g><path d="M252.21,323.75a8.6,8.6,0,0,1-8.59,8.58H161.06a.63.63,0,0,0-.63.63v.68a.63.63,0,0,0,.63.63h83a10.53,10.53,0,0,0,10.54-10.61,10.72,10.72,0,0,0-10.81-10.47H161.06a.64.64,0,0,0-.63.64v.68a.63.63,0,0,0,.63.63h82.3A8.83,8.83,0,0,1,252.21,323.75Z" style="fill: rgb(64, 123, 255); transform-origin: 207.515px 323.73px;" id="eldj6s8152j3" class="animable"></path><polygon points="243.21 321.33 243.21 328.95 240.45 326.19 237.78 328.86 237.78 321.33 243.21 321.33" style="fill: rgb(64, 123, 255); transform-origin: 240.495px 325.14px;" id="el8e2ri33rxlr" class="animable"></polygon><g id="eldn288u8ycy"><rect x="125.49" y="335.28" width="117.98" height="18.99" style="fill: rgb(64, 123, 255); transform-origin: 184.48px 344.775px; transform: rotate(180deg);" class="animable"></rect></g><g id="el3pmxe3pdp0d"><rect x="125.49" y="335.28" width="117.98" height="18.99" style="fill: rgb(255, 255, 255); opacity: 0.7; transform-origin: 184.48px 344.775px; transform: rotate(180deg);" class="animable"></rect></g><g id="ellh0k45ln9bb"><polygon points="125.49 340.3 125.49 338.75 206.27 339.4 125.49 340.3" style="isolation: isolate; opacity: 0.2; transform-origin: 165.88px 339.525px;" class="animable"></polygon></g><g id="elpx02n37uian"><polygon points="125.49 346.96 125.49 345.76 161.76 347.06 125.49 346.96" style="isolation: isolate; opacity: 0.2; transform-origin: 143.625px 346.41px;" class="animable"></polygon></g><g id="elunk2p24h9e"><polygon points="125.49 351.4 125.49 349.87 183.96 350.76 125.49 351.4" style="isolation: isolate; opacity: 0.2; transform-origin: 154.725px 350.635px;" class="animable"></polygon></g><g id="elr3y4aohtyp"><path d="M217.1,335.28l1.71,14.16-2-2.16a17.35,17.35,0,0,1-3.71,7,20.57,20.57,0,0,1-3-5.45l-55.1-.63L209.58,347a11.43,11.43,0,0,1-.26-2.35,10.7,10.7,0,0,1,.19-2l-80.85-.21,81-.63a15.31,15.31,0,0,1,1.19-3.08,6.32,6.32,0,0,0-4.22-1.62H125.49v-1.86Z" style="isolation: isolate; opacity: 0.2; transform-origin: 172.15px 344.765px;" class="animable"></path></g><path d="M215.28,344.66a8.6,8.6,0,0,1-8.6,8.59H124.13a.63.63,0,0,0-.63.63v.68a.63.63,0,0,0,.63.63H252.56a10.53,10.53,0,0,0,10.54-10.62,10.71,10.71,0,0,0-10.81-10.46H124.13a.64.64,0,0,0-.63.64v.68a.63.63,0,0,0,.63.63h82.3A8.84,8.84,0,0,1,215.28,344.66Z" style="fill: rgb(38, 50, 56); transform-origin: 193.3px 344.65px;" id="elpt5upwwbs7" class="animable"></path><g id="elgjbut8cvxnf"><path d="M215.28,344.66a8.6,8.6,0,0,1-8.6,8.59H124.13a.63.63,0,0,0-.63.63v.68a.63.63,0,0,0,.63.63H252.56a10.53,10.53,0,0,0,10.54-10.62,10.71,10.71,0,0,0-10.81-10.46H124.13a.64.64,0,0,0-.63.64v.68a.63.63,0,0,0,.63.63h82.3A8.84,8.84,0,0,1,215.28,344.66Z" style="fill: rgb(255, 255, 255); opacity: 0.2; transform-origin: 193.3px 344.65px;" class="animable"></path></g><path d="M215.28,344.66a8.6,8.6,0,0,1-8.6,8.59H124.13a.63.63,0,0,0-.63.63v.68a.63.63,0,0,0,.63.63h83a10.53,10.53,0,0,0,10.54-10.62,10.73,10.73,0,0,0-10.81-10.46H124.13a.64.64,0,0,0-.63.64v.68a.63.63,0,0,0,.63.63h82.3A8.84,8.84,0,0,1,215.28,344.66Z" style="fill: rgb(38, 50, 56); transform-origin: 170.585px 344.65px;" id="elsljcpm7vn69" class="animable"></path><polygon points="206.27 342.25 206.27 349.87 203.52 347.11 200.85 349.78 200.85 342.25 206.27 342.25" style="fill: rgb(38, 50, 56); transform-origin: 203.56px 346.06px;" id="ely39rspgcd8d" class="animable"></polygon><g id="elqgog28eerq8"><path d="M215.28,344.66a8.6,8.6,0,0,1-8.6,8.59H124.13a.63.63,0,0,0-.63.63v.68a.63.63,0,0,0,.63.63h83a10.53,10.53,0,0,0,10.54-10.62,10.73,10.73,0,0,0-10.81-10.46H124.13a.64.64,0,0,0-.63.64v.68a.63.63,0,0,0,.63.63h82.3A8.84,8.84,0,0,1,215.28,344.66Z" style="fill: rgb(255, 255, 255); opacity: 0.4; transform-origin: 170.585px 344.65px;" class="animable"></path></g></g><g id="freepik--character-2--inject-175" class="animable" style="transform-origin: 312.505px 361.123px;"><g id="freepik--group--inject-175" class="animable" style="transform-origin: 312.505px 361.123px;"><polygon points="356.99 403.7 363.37 403.9 369.26 404.08 370.32 412.45 362.85 412.67 355.68 412.88 356.99 403.7" style="fill: rgb(228, 137, 123); transform-origin: 363px 408.29px;" id="ele33bnx211vf" class="animable"></polygon><g id="elpkzvxlc7i5"><polygon points="356.99 403.7 363.37 403.9 362.85 412.67 355.68 412.88 356.99 403.7" style="isolation: isolate; opacity: 0.2; transform-origin: 359.525px 408.29px;" class="animable"></polygon></g><path d="M370.46,402.76a9.55,9.55,0,0,1-1,1.81.15.15,0,0,1-.17.08.18.18,0,0,1-.15-.13c-.08-.28-.7-2.83,0-3.58a.69.69,0,0,1,.62-.21,1,1,0,0,1,.86.55A2.11,2.11,0,0,1,370.46,402.76Zm-1-1.57c-.36.4-.2,1.81,0,2.84.73-1.19,1-2.14.83-2.6a.61.61,0,0,0-.55-.34.29.29,0,0,0-.3.1Z" style="fill: rgb(64, 123, 255); transform-origin: 369.749px 402.687px;" id="elh324dpocv7m" class="animable"></path><path d="M369.51,404.54a.1.1,0,0,1,0,.07.16.16,0,0,1-.16,0c-.07,0-2.21-.63-2.65-1.61a1,1,0,0,1,0-.8.67.67,0,0,1,.73-.41c.84.12,1.94,1.75,2.1,2.62A.15.15,0,0,1,369.51,404.54ZM367,402.49a.55.55,0,0,0,0,.42c.26.58,1.42,1.07,2.1,1.31-.3-.81-1.17-1.91-1.72-2-.1,0-.24,0-.36.22Z" style="fill: rgb(64, 123, 255); transform-origin: 368.077px 403.206px;" id="el0l7758cd94c" class="animable"></path><g id="elqthzunt1f9r"><path d="M370.46,402.76a9.55,9.55,0,0,1-1,1.81.15.15,0,0,1-.17.08.18.18,0,0,1-.15-.13c-.08-.28-.7-2.83,0-3.58a.69.69,0,0,1,.62-.21,1,1,0,0,1,.86.55A2.11,2.11,0,0,1,370.46,402.76Zm-1-1.57c-.36.4-.2,1.81,0,2.84.73-1.19,1-2.14.83-2.6a.61.61,0,0,0-.55-.34.29.29,0,0,0-.3.1Z" style="fill: rgb(255, 255, 255); opacity: 0.6; transform-origin: 369.749px 402.687px;" class="animable"></path></g><g id="elcxl7c9nld7"><path d="M369.51,404.54a.1.1,0,0,1,0,.07.16.16,0,0,1-.16,0c-.07,0-2.21-.63-2.65-1.61a1,1,0,0,1,0-.8.67.67,0,0,1,.73-.41c.84.12,1.94,1.75,2.1,2.62A.15.15,0,0,1,369.51,404.54ZM367,402.49a.55.55,0,0,0,0,.42c.26.58,1.42,1.07,2.1,1.31-.3-.81-1.17-1.91-1.72-2-.1,0-.24,0-.36.22Z" style="fill: rgb(255, 255, 255); opacity: 0.6; transform-origin: 368.077px 403.206px;" class="animable"></path></g><path d="M368.29,404.84l-3,8a.55.55,0,0,0,.29.71h0l6.22,2.76a1.36,1.36,0,0,0,1.73-.78c1-2.83,1.33-4.22,2.62-7.77a71.32,71.32,0,0,0,3.22-9.53c.63-3.15-2.49-3.68-3-2.41-1.3,3-4.85,6.47-7.18,7.9A2.15,2.15,0,0,0,368.29,404.84Z" style="fill: rgb(38, 50, 56); transform-origin: 372.352px 405.786px;" id="elzzmegvfyt1q" class="animable"></path><path d="M293.43,390.77l3.71,3.83s42.22,4.07,65.13,8.2l-2.91,14.38H281.52Z" style="fill: rgb(38, 50, 56); transform-origin: 321.895px 403.975px;" id="elg4xjkxlkj0l" class="animable"></path><g id="elp74q82jxmma"><path d="M293.43,390.77l3.71,3.83s42.22,4.07,65.13,8.2l-2.91,14.38H281.52Z" style="fill: rgb(255, 255, 255); isolation: isolate; opacity: 0.2; transform-origin: 321.895px 403.975px;" class="animable"></path></g><polygon points="338.69 398.52 340.66 404.6 342.48 410.2 334.97 414.04 332.24 407.07 329.61 400.4 338.69 398.52" style="fill: rgb(228, 137, 123); transform-origin: 336.045px 406.28px;" id="eli0tbfwked4" class="animable"></polygon><path d="M343.84,410.6a9.2,9.2,0,0,1-2-.41.16.16,0,0,1-.13-.14.19.19,0,0,1,.08-.18c.25-.15,2.51-1.49,3.42-1.07a.68.68,0,0,1,.38.53,1,1,0,0,1-.28,1A2.07,2.07,0,0,1,343.84,410.6Zm1.21-1.44c-.49-.23-1.8.33-2.72.84,1.35.35,2.35.37,2.74,0a.64.64,0,0,0,.16-.62.31.31,0,0,0-.18-.26Z" style="fill: rgb(64, 123, 255); transform-origin: 343.668px 409.678px;" id="el2sa2t2pw4b" class="animable"></path><path d="M341.86,410.2h-.07a.24.24,0,0,1-.09-.15c0-.07,0-2.3.78-3a.93.93,0,0,1,.77-.2.67.67,0,0,1,.61.57c.12.84-1.11,2.37-1.9,2.77A.12.12,0,0,1,341.86,410.2Zm1.24-3a.52.52,0,0,0-.39.14c-.49.41-.62,1.67-.65,2.38a3.73,3.73,0,0,0,1.45-2.23c0-.1-.07-.23-.32-.28Z" style="fill: rgb(64, 123, 255); transform-origin: 342.784px 408.52px;" id="el045jdxar9uv1" class="animable"></path><g id="el0g2q3zsv7o3l"><path d="M343.84,410.6a9.2,9.2,0,0,1-2-.41.16.16,0,0,1-.13-.14.19.19,0,0,1,.08-.18c.25-.15,2.51-1.49,3.42-1.07a.68.68,0,0,1,.38.53,1,1,0,0,1-.28,1A2.07,2.07,0,0,1,343.84,410.6Zm1.21-1.44c-.49-.23-1.8.33-2.72.84,1.35.35,2.35.37,2.74,0a.64.64,0,0,0,.16-.62.31.31,0,0,0-.18-.26Z" style="fill: rgb(255, 255, 255); opacity: 0.6; transform-origin: 343.668px 409.678px;" class="animable"></path></g><g id="eliuhf2anj9pi"><path d="M341.86,410.2h-.07a.24.24,0,0,1-.09-.15c0-.07,0-2.3.78-3a.93.93,0,0,1,.77-.2.67.67,0,0,1,.61.57c.12.84-1.11,2.37-1.9,2.77A.12.12,0,0,1,341.86,410.2Zm1.24-3a.52.52,0,0,0-.39.14c-.49.41-.62,1.67-.65,2.38a3.73,3.73,0,0,0,1.45-2.23c0-.1-.07-.23-.32-.28Z" style="fill: rgb(255, 255, 255); opacity: 0.6; transform-origin: 342.784px 408.52px;" class="animable"></path></g><path d="M341.22,409.13l-8.56-.53a.54.54,0,0,0-.6.48h0l-.84,6.76a1.36,1.36,0,0,0,1.25,1.43c3,.14,4.42.05,8.19.26a70.48,70.48,0,0,0,10.06.32c3.19-.31,2.8-3.46,1.42-3.61-3.26-.37-7.59-2.77-9.64-4.59A2.15,2.15,0,0,0,341.22,409.13Z" style="fill: rgb(38, 50, 56); transform-origin: 342.192px 413.251px;" id="el3aqcgulgo6t" class="animable"></path><g id="eldlvmuwmtj1r"><polygon points="338.69 398.52 340.66 404.6 332.24 407.07 329.61 400.4 338.69 398.52" style="isolation: isolate; opacity: 0.2; transform-origin: 335.135px 402.795px;" class="animable"></polygon></g><path d="M315.59,356.25l-2.07-.58a2.5,2.5,0,0,0-2.25.46l-2.94,2.37a4.69,4.69,0,0,0-1.73,3.91l.06.94c3.37,1.19,7.89,0,7.89,0l1.32-.19a2.07,2.07,0,0,0,1.82-2.34l-.35-2.63A2.39,2.39,0,0,0,315.59,356.25Z" style="fill: rgb(228, 137, 123); transform-origin: 312.151px 359.727px;" id="eltjt4xgw4h7i" class="animable"></path><g id="ellm4hfv1p3x"><path d="M315.59,356.25l-2.07-.58a2.5,2.5,0,0,0-2.25.46l-2.94,2.37a4.69,4.69,0,0,0-1.73,3.91l.06.94c3.37,1.19,7.89,0,7.89,0l1.32-.19a2.07,2.07,0,0,0,1.82-2.34l-.35-2.63A2.39,2.39,0,0,0,315.59,356.25Z" style="isolation: isolate; opacity: 0.1; transform-origin: 312.151px 359.727px;" class="animable"></path></g><path d="M251.75,396.44S249,417.18,274.1,417.18c25.82,0,23.47-17.7,18.33-28.22Z" style="fill: rgb(38, 50, 56); transform-origin: 273.688px 403.07px;" id="elue3mld2klo" class="animable"></path><g id="elzoa60ol98d"><path d="M251.75,396.44S249,417.18,274.1,417.18c25.82,0,23.47-17.7,18.33-28.22Z" style="fill: rgb(255, 255, 255); isolation: isolate; opacity: 0.4; transform-origin: 273.688px 403.07px;" class="animable"></path></g><path d="M280.52,345.91l7.85,4.6c2.6,1.52,5.24,3.05,7.76,4.27.32.17.61.29.9.42l.45.21.37.14c.27.11.49.18.71.25s.57.12.85.2c1.3.27,2.79.45,4.27.64,3,.36,6.07.7,9.13,1.14h0a2.19,2.19,0,0,1,.16,4.31,66.58,66.58,0,0,1-9.46,1.39,40.94,40.94,0,0,1-5,.11c-.49,0-.9-.06-1.44-.14l-.81-.13-.74-.19-.73-.21-.64-.21c-.43-.15-.86-.29-1.25-.45a84.28,84.28,0,0,1-8.81-4.15c-2.8-1.51-5.49-3.07-8.19-4.79a4.37,4.37,0,0,1,4.55-7.45Z" style="fill: rgb(228, 137, 123); transform-origin: 294.343px 354.479px;" id="elk21cr8lb88" class="animable"></path><g id="elcr33hp448v"><path d="M280.52,345.19l7.85,4.61c2.6,1.52,5.24,3.05,7.76,4.27.32.17.61.29.9.42l.45.21.37.14c.27.11.49.18.71.25s.57.12.85.2c1.3.27,2.79.45,4.27.64,3,.36,6.07.7,9.13,1.14h0a2.2,2.2,0,0,1,.16,4.32,66.58,66.58,0,0,1-9.46,1.39,40.94,40.94,0,0,1-5,.11c-.49,0-.9-.06-1.44-.14l-.81-.13-.74-.19-.73-.21-.64-.21c-.43-.15-.86-.29-1.25-.45a84.28,84.28,0,0,1-8.81-4.15c-2.8-1.51-5.49-3.07-8.19-4.79a4.37,4.37,0,0,1,4.55-7.45Z" style="isolation: isolate; opacity: 0.1; transform-origin: 294.334px 353.779px;" class="animable"></path></g><path d="M293.87,352.55l-5.08,10.28-.2,0-.25,0h-.06c-.33-.06-.81-.16-1.4-.31-.18,0-.38-.08-.58-.13l-.14,0-.62-.16-.82-.23a29.82,29.82,0,0,1-4.73-1.72c-.25-.14-.51-.27-.74-.41a8,8,0,0,1-1.36-.91.91.91,0,0,1-.17-.17l-.12-.11a1.83,1.83,0,0,1-.21-.26l-.15-.2a1.26,1.26,0,0,1-.11-.17c-.07-.11-.15-.22-.22-.35l-.22-.41-.21-.44s0-.08-.05-.12h0c-.06-.11-.1-.22-.15-.33s-.13-.32-.19-.5-.13-.33-.18-.5-.13-.37-.18-.55c-1.54-5-3.79-11.66-1.12-11.66,9,0,15.78,6.49,18.44,8.78C293.58,352.28,293.87,352.55,293.87,352.55Z" style="fill: rgb(64, 123, 255); transform-origin: 283.621px 353.01px;" id="elfzy9tcbwn8a" class="animable"></path><g id="elf2u2q7rzwi"><path d="M288.34,362.74h-.06c-.33-.06-.81-.16-1.4-.31-.18,0-.38-.08-.58-.13l-.14,0-.62-.16-.82-.23a29.82,29.82,0,0,1-4.73-1.72c-.25-.14-.51-.27-.74-.41a8,8,0,0,1-1.36-.91.91.91,0,0,1-.17-.17l-.12-.11a1.83,1.83,0,0,1-.21-.26l-.15-.2a1.26,1.26,0,0,1-.11-.17c-.07-.11-.15-.22-.22-.35l-.22-.41-.21-.44s0-.08-.05-.12h0l2.06-9.47s7.86,6.08,9.83,15.54A.29.29,0,0,1,288.34,362.74Z" style="isolation: isolate; opacity: 0.2; transform-origin: 282.385px 354.955px;" class="animable"></path></g><path d="M248.73,398.81s-4.32-33.19-2.88-40.36,4.23-17.1,28.76-15.42a12.5,12.5,0,0,1,10.71,11.25c1.31,10.3,8.11,36.49,8.11,36.49Z" style="fill: rgb(64, 123, 255); transform-origin: 269.493px 370.826px;" id="elei0tr5cq84" class="animable"></path><g id="elikbttka1iw"><path d="M293.43,390.77l-44.69,8.05s-4.33-33.21-2.88-40.36c1.23-6.12,3.43-14.26,19.32-15.45a64.87,64.87,0,0,1,9.44,0,12.41,12.41,0,0,1,10.46,9.86c.1.44.18.89.24,1.37.39,3,1.25,7.43,2.27,12.14.07.33.15.67.23,1,.16.76.33,1.53.5,2.31.44,1.92.88,3.85,1.33,5.72.15.64.3,1.28.45,1.9.09.43.2.85.3,1.27C292.05,385.45,293.43,390.77,293.43,390.77Z" style="fill: rgb(255, 255, 255); opacity: 0.6; transform-origin: 269.496px 370.829px;" class="animable"></path></g><g id="elh6jvh3c3d67"><path d="M289.65,375.46c-27.2,5.91-37-12.8-37-12.8a42.25,42.25,0,0,1,2.53-4,15.31,15.31,0,0,0,2.19,2.14c3.37,2.66,7.67,4,11.7,5.3a40.41,40.41,0,0,0,18.71,1.37c.16.76.33,1.53.5,2.31C288.76,371.66,289.2,373.59,289.65,375.46Z" style="isolation: isolate; opacity: 0.2; transform-origin: 271.15px 367.637px;" class="animable"></path></g><path d="M260.62,358.11c6,3.57,12.67,7,19.55,8.58l-.84-.05a23.5,23.5,0,0,0,4.66-.83c3.56-.95,7.17-2.14,10.71-3.3l5.43-1.79a2.18,2.18,0,0,1,1.88,3.89c-1.66,1.08-3.34,2-5,3a75.61,75.61,0,0,1-13.7,6.16,12.3,12.3,0,0,1-4.39.67c-8.3-1.18-16-4.58-23-9a4.36,4.36,0,0,1,4.76-7.31Z" style="fill: rgb(220, 137, 124); transform-origin: 278.464px 365.936px;" id="el6xdw3h17xzr" class="animable"></path><path d="M247.7,354.7c.25-2.83,3-8.39,11.18-9.86l2.78,3.34s-.68,4.58,1.23,5.81a82,82,0,0,1,10.64,8.5l-4.94,11.38S246.49,368.93,247.7,354.7Z" style="fill: rgb(64, 123, 255); transform-origin: 260.591px 359.355px;" id="ela112xqwlybt" class="animable"></path><path d="M261,343.51c-3.12.54-3.44,1.73-2.32,3.18s6.93,4.7,12.27,1.89S273.69,341.33,261,343.51Z" style="fill: rgb(64, 123, 255); transform-origin: 265.829px 346.308px;" id="eloio4e553mo" class="animable"></path><path d="M285.08,352.91c-5.14-5.44-12.8-7.17-12.8-7.17s-12.83.18-7.1-2.73a64.87,64.87,0,0,1,9.44,0A12.41,12.41,0,0,1,285.08,352.91Z" style="fill: rgb(64, 123, 255); transform-origin: 274.393px 347.874px;" id="elxdnj3em7h6" class="animable"></path><path d="M257.11,331.46a38.88,38.88,0,0,1,2.35,7.27,13.47,13.47,0,0,1,.24,5.09s-1.22,3.23,4.32,4.19c3.3.57,8.26-.21,8.26-3.46L270,344.2s-.07-.16-.17-.46c-.44-1.28-1.47-5.4,1.79-8C276.08,332.24,257.11,331.46,257.11,331.46Z" style="fill: rgb(228, 137, 123); transform-origin: 264.705px 339.821px;" id="elvnpb29ialhi" class="animable"></path><g id="elza2lajo0xmm"><path d="M257.11,331.46a38.88,38.88,0,0,1,2.35,7.27c3,2.56,6.53,4.81,10.34,5-.44-1.28-1.47-5.4,1.79-8C276.08,332.24,257.11,331.46,257.11,331.46Z" style="isolation: isolate; opacity: 0.2; transform-origin: 264.694px 337.595px;" class="animable"></path></g><path d="M278.88,313.5s4.4,4.43,1.84,10.16-9.49-7.17-9.49-7.17Z" style="fill: rgb(38, 50, 56); transform-origin: 276.375px 319.314px;" id="eld6k0brhu03w" class="animable"></path><path d="M254.45,323.61c1.68,8.17,2.19,13,7.43,16.62,7.9,5.42,18.84.11,19.95-8.42,1-7.68-1.9-19.73-11.42-21.8S252.78,315.45,254.45,323.61Z" style="fill: rgb(228, 137, 123); transform-origin: 268.124px 326.043px;" id="elrkc1787olmo" class="animable"></path><path d="M269,326.66c.05.83.53,1.49,1.08,1.45s.94-.73.89-1.57-.53-1.47-1.07-1.44S269,325.83,269,326.66Z" style="fill: rgb(38, 50, 56); transform-origin: 269.987px 326.605px;" id="elwukpowbv5ad" class="animable"></path><path d="M277.41,324.77c0,.83.53,1.48,1.08,1.45s.94-.74.89-1.57-.53-1.48-1.07-1.45S277.36,323.94,277.41,324.77Z" style="fill: rgb(38, 50, 56); transform-origin: 278.395px 324.71px;" id="elkviggapddgd" class="animable"></path><path d="M270.48,320.57a.57.57,0,0,0,.11-.28.51.51,0,0,0-.52-.47,4.83,4.83,0,0,0-3.92,2.15.49.49,0,0,0,.17.67h0a.51.51,0,0,0,.67-.17h0a3.83,3.83,0,0,1,3.16-1.65A.56.56,0,0,0,270.48,320.57Z" style="fill: rgb(38, 50, 56); transform-origin: 268.336px 321.261px;" id="elwqw5qkyuc4n" class="animable"></path><path d="M280.75,319.55a.59.59,0,0,0,.25-.17.5.5,0,0,0-.14-.68,4.8,4.8,0,0,0-4.43-.57.49.49,0,0,0-.26.64h0a.53.53,0,0,0,.65.26h0a3.79,3.79,0,0,1,3.52.53A.58.58,0,0,0,280.75,319.55Z" style="fill: rgb(38, 50, 56); transform-origin: 278.605px 318.711px;" id="elni6yh57no09" class="animable"></path><path d="M275.56,327.16l2.54,1.73s-.57,1-2.87,1.42Z" style="fill: rgb(222, 87, 83); transform-origin: 276.665px 328.735px;" id="elfsat5eye13m" class="animable"></path><path d="M251.92,319.82c-.6,1.39-1,3.67-.5,7.29a12.3,12.3,0,0,0,7,9.68l2.09-6.48s4.27-1.31,4.27-8.34c0-2.38-1.06-3.26-1.06-3.26Z" style="fill: rgb(38, 50, 56); transform-origin: 257.987px 327.75px;" id="elb30byobkqyi" class="animable"></path><path d="M262,328.37s-2.16-4.56-4.5-3-1.58,9.25,2,9.12S263.69,330.8,262,328.37Z" style="fill: rgb(228, 137, 123); transform-origin: 259.53px 329.768px;" id="el26v0pnjzgbc" class="animable"></path><path d="M275.24,333.44c-1.47,0-5.74-.24-8.12-2.91a.27.27,0,0,1,.4-.36c2.67,3,8.14,2.73,8.2,2.73a.27.27,0,0,1,0,.53Z" style="fill: rgb(38, 50, 56); transform-origin: 271.502px 331.768px;" id="elovwhye3317" class="animable"></path><path d="M263.71,318.71s2.32,1.13,3.91.38-.3-2.6-.3-2.6,3.13,1.39,5.37.73.68-3.43.68-3.43,2.16,2,4,2.24,1.47-2.53,1.47-2.53,2.26,1.5,3.14,0-3.41-3.34-3.41-3.34,1.86.45,2.13-1-3.82-3.19-7.81-2.46a1.84,1.84,0,0,0-.37-1.78c-.72-.86-6.79-.86-9.23,1,0,0,.07-1.11-2.11-1.55s-4.75,4.31-4.75,4.31-3.28-.07-4.66,1.38,1.23,1.81,1.23,1.81-3.78,1.48-4.41,5.12,2.08,2.14,2.08,2.14-1.49,2.77-.44,5.05,8.64-3.29,8.64-3.29,0,2.62,1.68,2.35C263.71,322.7,263.71,318.71,263.71,318.71Z" style="fill: rgb(38, 50, 56); transform-origin: 265.297px 314.535px;" id="eltd9lx9y1hge" class="animable"></path><g id="elt5u5iikfzvf"><rect x="301.29" y="346.84" width="2.14" height="17.48" style="fill: rgb(38, 50, 56); transform-origin: 302.36px 355.58px; transform: rotate(-36.7deg);" class="animable"></rect></g><path d="M306.66,357.09l-2.13-.27a2.46,2.46,0,0,0-2.15.78l-2.57,2.77a4.64,4.64,0,0,0-1.14,4.12l.19.92c3.5.69,7.8-1.14,7.8-1.14l1.29-.38a2.09,2.09,0,0,0,1.46-2.58l-.73-2.55A2.41,2.41,0,0,0,306.66,357.09Z" style="fill: rgb(228, 137, 123); transform-origin: 304.028px 361.181px;" id="el13x3dbp462qo" class="animable"></path><path d="M290.11,375.88a119.45,119.45,0,0,1,8.75-10.47c4.23-4.35,10.06-6.88,14-4.23,0,0,2.87-2.24,5.83-1.82s8.16,7.85,8.16,7.85l-5,2.65L304,376.39,292.88,383Z" style="fill: rgb(38, 50, 56); transform-origin: 308.48px 371.154px;" id="eln3p4sv4pqtk" class="animable"></path><g id="elwz71m4smw4t"><path d="M326.87,367.21l-5,2.66L304,376.4l-11.15,6.65-2.77-7.17a121.08,121.08,0,0,1,8.75-10.47,20.25,20.25,0,0,1,5.51-4.07c3-1.46,6.1-1.77,8.51-.16,0,0,2.87-2.24,5.83-1.82,1.59.22,3.81,2.45,5.53,4.48C325.74,365.6,326.87,367.21,326.87,367.21Z" style="fill: rgb(255, 255, 255); opacity: 0.9; transform-origin: 308.475px 371.179px;" class="animable"></path></g><g id="elpsqj5mmyjs"><path d="M324.24,363.84,323,368.17l-9.6,1.4h-14.8l-.92-1.57a47.91,47.91,0,0,1,6.72-6.66c3-1.46,6.1-1.77,8.51-.16,0,0,2.87-2.24,5.83-1.82C320.3,359.58,322.52,361.81,324.24,363.84Z" style="isolation: isolate; opacity: 0.1; transform-origin: 310.96px 364.439px;" class="animable"></path></g><path d="M328.7,367.21l-7.51,6-28.6,11.19-.27.11-2.8-5.64L297.9,369s7.55-9.29,15.67-6.43c0,0,5.35-2.38,9-1.41l.09,0C326.17,362.24,328.7,367.21,328.7,367.21Z" style="fill: rgb(64, 123, 255); transform-origin: 309.11px 372.719px;" id="elk0m8pny6d9g" class="animable"></path><g id="el3jkm3nob6rb"><path d="M328.7,367.21l-7.51,6-28.6,11.19,21.67-21.08a15.61,15.61,0,0,1,8.36-2.13C326.17,362.24,328.7,367.21,328.7,367.21Z" style="isolation: isolate; opacity: 0.2; transform-origin: 310.645px 372.791px;" class="animable"></path></g><path d="M268.13,395.45s32.91-32.21,46.6-31.22,26.75,38,26.75,38l-11.89,4.68S314.76,387.77,313,387.77s-13.58,18.34-19.55,23.51-11.3,6-13.78,6h-4.56Z" style="fill: rgb(38, 50, 56); transform-origin: 304.805px 390.744px;" id="el78slc7l1n1x" class="animable"></path><g id="eldsdx8mbrxe"><path d="M268.13,395.45s32.91-32.21,46.6-31.22,26.75,38,26.75,38l-11.89,4.68S314.76,387.77,313,387.77s-13.58,18.34-19.55,23.51-11.3,6-13.78,6h-4.56Z" style="fill: rgb(255, 255, 255); isolation: isolate; opacity: 0.4; transform-origin: 304.805px 390.744px;" class="animable"></path></g></g></g><g id="freepik--character-1--inject-175" class="animable" style="transform-origin: 152.307px 287.24px;"><g id="freepik--group--inject-175" class="animable" style="transform-origin: 152.307px 287.24px;"><path d="M157.77,257.72a107.74,107.74,0,0,1-2.72,17.74c-2.23,6.09-6.2,10.65-10.48,15.27a2,2,0,0,1-3.28-2.37c1.84-3.79,3.82-7.56,5.45-11.4a14.94,14.94,0,0,0,1.37-5.2c.16-1.32.5-4.92.63-6.29.27-2.84.56-5.72.9-8.55a4.09,4.09,0,0,1,8.13.8Z" style="fill: rgb(235, 192, 187); transform-origin: 149.341px 272.503px;" id="el3sjbmzn3ce4" class="animable"></path><path d="M152.45,252.23c-5.3,3.72-6,13.44-6,13.44l9.66,2.24Z" style="fill: rgb(38, 50, 56); transform-origin: 151.28px 260.07px;" id="elkh5ni7ec6as" class="animable"></path><path d="M192.52,291.45s-4.33-30-8-35.81-9.3-13.66-28.65-6.26c0,0-7.29,3.09-4.82,12.25S157,294.94,157,294.94Z" style="fill: rgb(38, 50, 56); transform-origin: 171.53px 270.654px;" id="el1ycvy6cscmo" class="animable"></path><g id="elf990uc9fm4c"><path d="M151.08,261.63c.73,2.7,1.54,6.69,2.33,11,.18,1,.36,2,.54,3,.42,2.36.82,4.74,1.18,7,.07.4.13.79.2,1.17,1,6.26,1.71,11.16,1.71,11.16l35.48-3.48s-4.33-30-8-35.82-9.31-13.67-28.64-6.25C155.92,249.39,148.62,252.46,151.08,261.63Z" style="fill: rgb(255, 255, 255); opacity: 0.6; transform-origin: 171.547px 270.673px;" class="animable"></path></g><polygon points="130.36 334.45 136.85 351.71 141.4 348.85 137.94 331.31 130.36 334.45" style="fill: rgb(238, 193, 187); transform-origin: 135.88px 341.51px;" id="elc3p8x4tyrmi" class="animable"></polygon><path d="M190.52,287.79l-34.49.46v3.62s-25.1,1.46-32.22,8.58,7.9,41.6,7.9,41.6l9-1.44-2.15-27.67s22,2.18,29.33,2.18C183.68,315.12,190.52,287.79,190.52,287.79Z" style="fill: rgb(64, 123, 255); transform-origin: 156.207px 314.92px;" id="elhmwkwwsqdl6" class="animable"></path><path d="M133.89,348.27l7.55-2.11a.49.49,0,0,1,.62.31h0l2,5.88a1.23,1.23,0,0,1-.84,1.51c-2.65.69-3.94.89-7.27,1.79a63.65,63.65,0,0,1-8.93,2.21c-2.91.33-3.16-2.56-2-2.95a19.36,19.36,0,0,0,7.73-5.94A1.91,1.91,0,0,1,133.89,348.27Z" style="fill: rgb(38, 50, 56); transform-origin: 134.239px 352.011px;" id="elw9g5vtm5rb" class="animable"></path><path d="M130.47,350.1a.89.89,0,0,1-.44-.82.62.62,0,0,1,.24-.55c.74-.55,3,.22,3.26.31a.18.18,0,0,1,.11.14.13.13,0,0,1-.09.15,8.78,8.78,0,0,1-1.72.75A1.93,1.93,0,0,1,130.47,350.1Zm0-1.08a.29.29,0,0,0-.12.27.6.6,0,0,0,.27.53c.4.22,1.3,0,2.43-.56-.92-.28-2.19-.53-2.58-.24Z" style="fill: rgb(64, 123, 255); transform-origin: 131.835px 349.374px;" id="elv3jjbkgjqj" class="animable"></path><path d="M133.44,349.37c-.78-.2-2.18-1.33-2.23-2.11a.62.62,0,0,1,.44-.63.85.85,0,0,1,.73,0c.85.47,1.24,2.47,1.26,2.53a.17.17,0,0,1,0,.15h-.07A.08.08,0,0,1,133.44,349.37ZM131.77,347c-.21.09-.24.21-.23.31.07.51,1,1.39,1.72,1.72-.16-.64-.52-1.73-1-2a.44.44,0,0,0-.37-.05Z" style="fill: rgb(64, 123, 255); transform-origin: 132.433px 347.968px;" id="elejgrn0bshqh" class="animable"></path><g id="elmosgchjdum"><path d="M190.52,287.79l-34.49.46v3.62s-25.1,1.46-32.22,8.58,7.9,41.6,7.9,41.6l9-1.44-2.15-27.67s22,2.18,29.33,2.18C183.68,315.12,190.52,287.79,190.52,287.79Z" style="isolation: isolate; opacity: 0.2; transform-origin: 156.207px 314.92px;" class="animable"></path></g><polygon points="139.63 334.35 142.67 352.54 147.68 350.62 147.68 332.73 139.63 334.35" style="fill: rgb(238, 193, 187); transform-origin: 143.655px 342.635px;" id="el9n5mr0my65n" class="animable"></polygon><path d="M141.1,351.18l7-3.54a.5.5,0,0,1,.68.18h0l3.15,5.36a1.23,1.23,0,0,1-.53,1.65c-2.46,1.2-3.69,1.65-6.78,3.19a65.62,65.62,0,0,1-8.32,3.91c-2.79.89-3.6-1.89-2.49-2.51a19.34,19.34,0,0,0,6.42-7.35A1.94,1.94,0,0,1,141.1,351.18Z" style="fill: rgb(38, 50, 56); transform-origin: 142.697px 354.839px;" id="el98zp2khkqps" class="animable"></path><path d="M138.1,353.65a.88.88,0,0,1-.59-.72.62.62,0,0,1,.13-.58c.61-.68,3-.38,3.26-.34a.18.18,0,0,1,.13.12.15.15,0,0,1-.06.17,8.11,8.11,0,0,1-1.54,1.06A1.89,1.89,0,0,1,138.1,353.65Zm-.21-1.06a.31.31,0,0,0-.06.29.6.6,0,0,0,.37.46c.44.14,1.27-.24,2.28-1-1-.1-2.26-.09-2.59.27Z" style="fill: rgb(64, 123, 255); transform-origin: 139.261px 352.791px;" id="elg9fdmmiaxy7" class="animable"></path><path d="M140.87,352.36c-.81-.05-2.4-.89-2.6-1.63a.63.63,0,0,1,.3-.71.9.9,0,0,1,.73-.11c.93.29,1.7,2.17,1.73,2.23a.16.16,0,0,1,0,.15.06.06,0,0,1-.07,0A.08.08,0,0,1,140.87,352.36Zm-2.11-2.05c-.19.13-.2.26-.16.35a3.38,3.38,0,0,0,2,1.35c-.28-.59-.84-1.59-1.4-1.76a.46.46,0,0,0-.38,0Z" style="fill: rgb(64, 123, 255); transform-origin: 139.649px 351.119px;" id="eled2la8vv0ol" class="animable"></path><path d="M192,287.79s6.49,21.69-8,25.88-34-.73-34-.73l-1.16,27.54-9.17.14s-8.07-28.68-6-37.49,32.25-11.46,32.25-11.46l.14-3.88Z" style="fill: rgb(64, 123, 255); transform-origin: 163.39px 314.205px;" id="el8t671wxkebj" class="animable"></path><path d="M152.88,287.82l1.86-.78a2.32,2.32,0,0,1,2.14.16l3,1.85a4.41,4.41,0,0,1,2.07,3.44l.06.87c-3,1.51-7.33.94-7.33.94l-1.26,0a1.94,1.94,0,0,1-2-1.95v-2.49A2.25,2.25,0,0,1,152.88,287.82Z" style="fill: rgb(238, 193, 187); transform-origin: 156.715px 290.628px;" id="elnjra6wfrt3" class="animable"></path><path d="M182.21,258.53c2.19,7.89,2.58,16.79-1.59,24.17-1.35,2-3.48,3.15-5,4.2a72.75,72.75,0,0,1-13.83,6.45,2,2,0,0,1-1.81-3.62c4.72-3.48,10.74-7,14.63-11.2l-.44.64c2.5-5.7,1.61-12.49.22-18.42a4.09,4.09,0,0,1,7.86-2.22Z" style="fill: rgb(235, 192, 187); transform-origin: 171.344px 274.664px;" id="elis3y3znhlfc" class="animable"></path><path d="M119.1,294.44v2.36c0,.61.71.86,1.31.86h47.12c.6,0,1.33-.25,1.33-.86v-2.36Z" style="fill: rgb(64, 123, 255); transform-origin: 143.98px 296.05px;" id="el0vtcc0f7lpri" class="animable"></path><g id="ely6y10izdcw"><path d="M119.1,294.44v2.36c0,.61.71.86,1.31.86h47.12c.6,0,1.33-.25,1.33-.86v-2.36Z" style="fill: rgb(255, 255, 255); isolation: isolate; opacity: 0.4; transform-origin: 143.98px 296.05px;" class="animable"></path></g><g id="elmrhw2swi7kb"><path d="M119.1,294.44v2.36c0,.61.71.86,1.31.86h31.08c.6,0,1.32-.25,1.32-.86v-2.36Z" style="isolation: isolate; opacity: 0.2; transform-origin: 135.955px 296.05px;" class="animable"></path></g><path d="M111.21,270l5.61,25.45a1.92,1.92,0,0,0,1.83,1.44h30.64a1.24,1.24,0,0,0,1.15-1.6L144.84,270a1.75,1.75,0,0,0-1.83-1.24H112.37C111.55,268.76,111,269.13,111.21,270Z" style="fill: rgb(64, 123, 255); transform-origin: 130.829px 282.822px;" id="el1a71ean984p" class="animable"></path><g id="elga95bcrf5dl"><path d="M111.21,270l5.61,25.45a1.92,1.92,0,0,0,1.83,1.44h29.6a1.23,1.23,0,0,0,1.15-1.6L143.79,270a1.73,1.73,0,0,0-1.82-1.24h-29.6C111.55,268.76,111,269.13,111.21,270Z" style="fill: rgb(255, 255, 255); isolation: isolate; opacity: 0.4; transform-origin: 130.311px 282.821px;" class="animable"></path></g><g id="elt7a20ybke0s"><path d="M126.32,282.9h0a4.38,4.38,0,0,0,4.05,4c1.71,0,2.73-1.77,2.24-4s-2.19-3.87-3.87-3.94c.49,2.18-.56,3.94-2.26,3.94Z" style="isolation: isolate; opacity: 0.2; transform-origin: 129.527px 282.93px;" class="animable"></path></g><path d="M159.71,255.65s-6.25-4.75-2.5-10.71c2.13-3.4,18.69-6.31,21.32-2.76a7,7,0,0,1,.73,7.17s-3.3-.07-5.64,0S166.71,256.53,159.71,255.65Z" style="fill: rgb(38, 50, 56); transform-origin: 167.968px 248.143px;" id="elftnr8xl90n8" class="animable"></path><path d="M166.29,234.87a34.82,34.82,0,0,0,.59,6.85c.31,1.61,1.21,4.65,3.41,5.88,0,0-.48,2.58-4.15,4.89-2.82,1.77-5.3,2.42-6.33,1.77s.25-4.34.25-4.34a2.89,2.89,0,0,0,0-.44c-.07-1.21-.65-5-4.25-6C150.83,242.13,166.29,234.87,166.29,234.87Z" style="fill: rgb(238, 193, 187); transform-origin: 162.556px 244.688px;" id="el7tgvxrv6alj" class="animable"></path><g id="eltmzsrtyx1l"><path d="M166.29,234.87a34.82,34.82,0,0,0,.59,6.85c-1.59,3.16-3.75,6.27-6.84,7.76-.07-1.21-.65-5-4.25-6C150.83,242.13,166.29,234.87,166.29,234.87Z" style="isolation: isolate; opacity: 0.2; transform-origin: 160.844px 242.175px;" class="animable"></path></g><path d="M143.06,224.6s-2.58,5.13,1.31,9.4,6.22-9,6.22-9Z" style="fill: rgb(38, 50, 56); transform-origin: 146.406px 229.723px;" id="ela3xmp79wmes" class="animable"></path><path d="M167.27,226.41c.89,7.61,1.84,12-1.71,16.64-5.33,7-16.4,5.51-19.82-1.62-3.11-6.4-4-17.77,3.71-22.3S166.39,218.81,167.27,226.41Z" style="fill: rgb(238, 193, 187); transform-origin: 155.78px 232.433px;" id="elutsq310t9ti" class="animable"></path><path d="M151.89,228.61a.58.58,0,0,1-.16-.19.41.41,0,0,1,.28-.49,3.89,3.89,0,0,1,3.56.66.4.4,0,0,1,0,.56h0a.42.42,0,0,1-.56,0h0a3.13,3.13,0,0,0-2.85-.47A.43.43,0,0,1,151.89,228.61Z" style="fill: rgb(38, 50, 56); transform-origin: 153.701px 228.506px;" id="elqypw5llbd8" class="animable"></path><path d="M143.32,231.48a.34.34,0,0,1-.24-.06.41.41,0,0,1-.07-.56,3.91,3.91,0,0,1,3.27-1.56.39.39,0,0,1,.36.43h0a.41.41,0,0,1-.43.36h0a3.1,3.1,0,0,0-2.58,1.3A.39.39,0,0,1,143.32,231.48Z" style="fill: rgb(38, 50, 56); transform-origin: 144.786px 230.391px;" id="elxs83i8oxnp" class="animable"></path><path d="M149.23,236l-1.51,2s.7.65,2.56.37Z" style="fill: rgb(212, 130, 125); transform-origin: 149px 237.22px;" id="eldndwicd421p" class="animable"></path><path d="M150.16,241a23.65,23.65,0,0,1,2.1,2.65l.53-.25c2.44-1.16,3.18-2.51,3.27-3.64a3.64,3.64,0,0,0-.3-1.62,3.27,3.27,0,0,0-.48-.81,12.66,12.66,0,0,1-4.3,3.26C150.49,240.85,150.16,241,150.16,241Z" style="fill: rgb(38, 50, 56); transform-origin: 153.112px 240.49px;" id="elhmqazl3ezbd" class="animable"></path><path d="M151,240.58l.64.77c2.29-1.1,3.75-2.18,4.14-3.22a3.27,3.27,0,0,0-.48-.81A12.66,12.66,0,0,1,151,240.58Z" style="fill: rgb(255, 255, 255); transform-origin: 153.39px 239.335px;" id="el2bdr3a9v38p" class="animable"></path><path d="M152.79,243.39c2.44-1.16,3.18-2.51,3.27-3.64a8.67,8.67,0,0,0-2.45,1.82A3.32,3.32,0,0,0,152.79,243.39Z" style="fill: rgb(222, 87, 83); transform-origin: 154.425px 241.57px;" id="eld7oaqukv6x5" class="animable"></path><path d="M156.64,215.32a3,3,0,0,1-.52,0l.62,9.24a7.26,7.26,0,0,0,2.57,5.1,10.15,10.15,0,0,0,4,5c3.59-.08,4,5.31,4,5.31C173.72,236.48,172.86,211.38,156.64,215.32Z" style="fill: rgb(38, 50, 56); transform-origin: 163.575px 227.436px;" id="elheei9ub7yfn" class="animable"></path><path d="M162.05,232.73s.58-4.6,3.06-3.92,4,7.62.91,8.53S161.27,235.34,162.05,232.73Z" style="fill: rgb(238, 193, 187); transform-origin: 164.804px 233.126px;" id="elwcifr0wtuk" class="animable"></path><path d="M152.57,233.64c.25.73.86,1.19,1.35,1s.68-.91.43-1.64-.87-1.2-1.36-1S152.31,232.9,152.57,233.64Z" style="fill: rgb(38, 50, 56); transform-origin: 153.457px 233.318px;" id="eln06qu0autoq" class="animable"></path><path d="M153.21,232l-1.82-.08S152.65,233,153.21,232Z" style="fill: rgb(38, 50, 56); transform-origin: 152.3px 232.172px;" id="elma38t5dfw8l" class="animable"></path><path d="M145.41,235.28c.25.74.86,1.2,1.35,1s.68-.91.43-1.65-.87-1.19-1.36-1S145.15,234.54,145.41,235.28Z" style="fill: rgb(38, 50, 56); transform-origin: 146.297px 234.957px;" id="elm0jnta2d54" class="animable"></path><path d="M146.05,233.6l-1.82-.07S145.49,234.6,146.05,233.6Z" style="fill: rgb(38, 50, 56); transform-origin: 145.14px 233.778px;" id="elf32434nqm0w" class="animable"></path><path d="M146.89,225.76c-.69,1.05-.83,3.23-.83,4.87,1.28-.18,2.73-.41,4.22-.66-.55-3.55.09-4.88.09-4.88a12.37,12.37,0,0,0,1.11,4.67c1.15-.21,2.3-.44,3.41-.68a16.34,16.34,0,0,1-.43-4.34,9.48,9.48,0,0,0,2.31,3.91l.53-.14s-1.71-3.22,0-5.86-1.18-7.29-1.18-7.29-17,.28-14.9,15.92c0,0,1.48-.17,3.65-.48A8.5,8.5,0,0,1,146.89,225.76Z" style="fill: rgb(38, 50, 56); transform-origin: 149.441px 223.32px;" id="elu4jbxatpd1" class="animable"></path><path d="M173.79,228.51a31,31,0,0,1,.69,4.2,14.73,14.73,0,0,0,4.8-1.48c.05-3-.28-6.49-.28-6.49a37.7,37.7,0,0,1,1.15,6,6.4,6.4,0,0,0,.56-.36s-1.65-18.29-8.33-18-8,5.67-8,5.67l1.91,2.84s2.51-2.51,4-.42,2.9,12.28,2.9,12.28l.58,0C173.84,230.83,173.79,228.51,173.79,228.51Z" style="fill: rgb(38, 50, 56); transform-origin: 172.545px 222.563px;" id="eldtitm8i9q8n" class="animable"></path><path d="M178.62,252.23c4.27,0,7.27,5.31,7.83,12.53l-13,2.89S168.86,252.3,178.62,252.23Z" style="fill: rgb(38, 50, 56); transform-origin: 179.411px 259.94px;" id="el0sztx740orm" class="animable"></path></g></g><g id="freepik--Plant--inject-175" class="animable" style="transform-origin: 98.365px 360.349px;"><path d="M98.2,392.28s-.46-25.79,11.68-37.38-8.6-1.82-13.12,10.35c0,0,1.2-23.08,13.51-37.1s-7.52-4.39-12.13,11.62c0,0,1-20.6,7.45-31s-2.37-4.63-6.58,1.88-3.85,24.72-3.85,24.72S94,301.56,86.44,302.78s5.93,25.79,6.24,37.28c0,0-5.43-16.43-12.32-14.56s8.86,6.5,11.93,30l.58,10.86S88.06,350.29,82.18,354s12.37,15.44,12.69,38.51Z" style="fill: rgb(64, 123, 255); transform-origin: 96.4365px 347.629px;" id="ell7jjhaw657d" class="animable"></path><g id="el8uhkh86s3qk"><path d="M98.2,392.28s-.46-25.79,11.68-37.38-8.6-1.82-13.12,10.35c0,0,1.2-23.08,13.51-37.1s-7.52-4.39-12.13,11.62c0,0,1-20.6,7.45-31s-2.37-4.63-6.58,1.88-3.85,24.72-3.85,24.72S94,301.56,86.44,302.78s5.93,25.79,6.24,37.28c0,0-5.43-16.43-12.32-14.56s8.86,6.5,11.93,30l.58,10.86S88.06,350.29,82.18,354s12.37,15.44,12.69,38.51Z" style="isolation: isolate; opacity: 0.2; transform-origin: 96.4365px 347.629px;" class="animable"></path></g><polygon points="83.1 417.95 114.02 417.95 118.13 387.89 78.99 387.89 83.1 417.95" style="fill: rgb(38, 50, 56); transform-origin: 98.56px 402.92px;" id="eljr5bqekpxbo" class="animable"></polygon><g id="elwr683n6vc6d"><polygon points="83.1 417.95 114.02 417.95 118.13 387.89 78.99 387.89 83.1 417.95" style="fill: rgb(255, 255, 255); isolation: isolate; opacity: 0.2; transform-origin: 98.56px 402.92px;" class="animable"></polygon></g><path d="M97.29,391.15s3.23-20.65-5.23-31.29,7.11-.51,9.39,9.75c0,0,1.59-18.65-6.74-31.27s6.53-2.69,8.46,10.67c0,0,1.46-16.64-2.55-25.74s2.42-3.45,5.08,2.24.34,20.27.34,20.27,4.7-27,10.61-25.16-7.62,20-9.14,29.23c0,0,6.18-12.59,11.5-10.32s-7.82,4.24-12.9,22.78L104.44,371s5.64-12.4,10-8.81-11.64,11-14.45,29.5Z" style="fill: rgb(64, 123, 255); transform-origin: 104.909px 355.084px;" id="ele97h66gyan8" class="animable"></path><path d="M122,385.45v2.86a3.46,3.46,0,0,1-3.46,3.46H78.19a3.46,3.46,0,0,1-3.46-3.46v-2.86Z" style="fill: rgb(38, 50, 56); transform-origin: 98.365px 388.61px;" id="el1vu1uu848ci" class="animable"></path></g><defs>     <filter id="active" height="200%">         <feMorphology in="SourceAlpha" result="DILATED" operator="dilate" radius="2"></feMorphology>                <feFlood flood-color="#32DFEC" flood-opacity="1" result="PINK"></feFlood>        <feComposite in="PINK" in2="DILATED" operator="in" result="OUTLINE"></feComposite>        <feMerge>            <feMergeNode in="OUTLINE"></feMergeNode>            <feMergeNode in="SourceGraphic"></feMergeNode>        </feMerge>    </filter>    <filter id="hover" height="200%">        <feMorphology in="SourceAlpha" result="DILATED" operator="dilate" radius="2"></feMorphology>                <feFlood flood-color="#ff0000" flood-opacity="0.5" result="PINK"></feFlood>        <feComposite in="PINK" in2="DILATED" operator="in" result="OUTLINE"></feComposite>        <feMerge>            <feMergeNode in="OUTLINE"></feMergeNode>            <feMergeNode in="SourceGraphic"></feMergeNode>        </feMerge>            <feColorMatrix type="matrix" values="0   0   0   0   0                0   1   0   0   0                0   0   0   0   0                0   0   0   1   0 "></feColorMatrix>    </filter></defs></svg>